<svg xmlns="http://www.w3.org/2000/svg" xmlns:xlink="http://www.w3.org/1999/xlink" width="500" zoomAndPan="magnify" viewBox="0 0 375 374.999991" height="500" preserveAspectRatio="xMidYMid meet" version="1.0"><defs><clipPath id="907f4c39b8"><path d="M 1 25 L 366 25 L 366 359.023438 L 1 359.023438 Z M 1 25 " clip-rule="nonzero"/></clipPath></defs><g clip-path="url(#907f4c39b8)"><path fill="#000000" d="M 356.367188 259.445312 L 240.476562 58.527344 C 222.339844 27.082031 182.023438 16.273438 150.609375 34.425781 C 142.050781 39.375 134.863281 46.058594 129.402344 54.003906 C 128.125 55.785156 126.949219 57.59375 125.910156 59.398438 L 14.753906 252.105469 C 6.246094 263.300781 1.1875 277.257812 1.1875 292.375 C 1.1875 329.132812 31.0625 359.035156 67.785156 359.035156 C 96.628906 359.035156 121.242188 340.585938 130.480469 314.859375 L 183.445312 223.039062 L 242.425781 325.289062 C 254.597656 346.390625 276.753906 358.203125 299.507812 358.203125 C 310.660156 358.199219 321.957031 355.363281 332.289062 349.390625 C 363.703125 331.238281 374.503906 290.886719 356.367188 259.445312 Z M 67.785156 344.675781 C 38.972656 344.675781 15.535156 321.214844 15.535156 292.375 C 15.535156 284.113281 17.464844 276.300781 20.886719 269.347656 C 21.488281 268.832031 22.023438 268.21875 22.441406 267.496094 L 26.675781 260.148438 C 36.25 247.941406 51.113281 240.074219 67.785156 240.074219 C 96.597656 240.074219 120.039062 263.539062 120.039062 292.375 C 120.039062 298.15625 119.082031 303.714844 117.34375 308.917969 L 111.539062 318.984375 C 110.929688 320.039062 110.621094 321.1875 110.582031 322.328125 C 101.125 335.824219 85.472656 344.675781 67.785156 344.675781 Z M 133.417969 281.050781 C 128.027344 249.671875 100.652344 225.714844 67.785156 225.714844 C 59.410156 225.714844 51.394531 227.277344 44.003906 230.113281 L 118.4375 101.070312 C 119.621094 109.1875 122.324219 117.078125 126.53125 124.375 L 175.160156 208.679688 Z M 325.117188 336.957031 C 313.273438 343.800781 299.417969 345.601562 286.101562 342.03125 C 272.785156 338.460938 261.6875 329.964844 254.847656 318.109375 L 138.953125 117.195312 C 124.773438 92.609375 133.21875 61.054688 157.785156 46.859375 C 165.863281 42.191406 174.695312 39.972656 183.417969 39.972656 C 201.207031 39.972656 218.535156 49.207031 228.050781 65.707031 L 343.945312 266.625 C 358.128906 291.210938 349.679688 322.761719 325.117188 336.957031 Z M 325.117188 336.957031 " fill-opacity="1" fill-rule="nonzero"/></g></svg>