<svg width="65" height="65" viewBox="0 0 65 65" fill="none" xmlns="http://www.w3.org/2000/svg">
<path d="M64.7573 32.6313C64.7573 14.8841 50.3732 0.5 32.6287 0.5C14.8841 0.5 0.5 14.8841 0.5 32.6313C0.5 48.6649 12.2494 61.9565 27.6081 64.3664V41.9173H19.4521V32.6287H27.6081V25.5517C27.6081 17.4975 32.4064 13.05 39.7431 13.05C43.2588 13.05 46.9351 13.6765 46.9351 13.6765V21.5835H42.8866C38.8969 21.5835 37.6519 24.0603 37.6519 26.6014V32.6313H46.5629L45.1385 41.92H37.6519V64.3691C53.0106 61.9592 64.76 48.6676 64.76 32.6313H64.7573Z" fill="black"/>
</svg>
