<svg xmlns="http://www.w3.org/2000/svg" xmlns:xlink="http://www.w3.org/1999/xlink" width="500" zoomAndPan="magnify" viewBox="0 0 375 374.999991" height="500" preserveAspectRatio="xMidYMid meet" version="1.0"><defs><g/><clipPath id="d8c0cef140"><path d="M 28.769531 162.882812 L 346 162.882812 L 346 199.632812 L 28.769531 199.632812 Z M 28.769531 162.882812 " clip-rule="nonzero"/></clipPath></defs><rect x="-37.5" width="450" fill="#ffffff" y="-37.499999" height="449.999989" fill-opacity="1"/><rect x="-37.5" width="450" fill="#ffffff" y="-37.499999" height="449.999989" fill-opacity="1"/><rect x="-37.5" width="450" fill="#66ddb0" y="-37.499999" height="449.999989" fill-opacity="1"/><g fill="#523e27" fill-opacity="1"><g transform="translate(48.05176, 242.228194)"><g><path d="M 41.171875 -128.625 C 32.398438 -128.625 25.644531 -126.253906 20.90625 -121.515625 C 16.164062 -116.773438 12.734375 -109.023438 10.609375 -98.265625 C 10.472656 -97.847656 10.015625 -97.671875 9.234375 -97.734375 C 8.453125 -97.804688 8.0625 -97.984375 8.0625 -98.265625 C 8.632812 -102.234375 9.269531 -108.601562 9.96875 -117.375 C 10.675781 -126.144531 11.03125 -132.796875 11.03125 -137.328125 C 11.03125 -138.035156 11.453125 -138.390625 12.296875 -138.390625 C 13.148438 -138.390625 13.578125 -138.035156 13.578125 -137.328125 C 13.578125 -134.210938 17.398438 -132.65625 25.046875 -132.65625 C 37.210938 -132.226562 51.429688 -132.015625 67.703125 -132.015625 C 76.054688 -132.015625 84.898438 -132.15625 94.234375 -132.4375 L 108.671875 -132.65625 C 113.765625 -132.65625 117.546875 -133.007812 120.015625 -133.71875 C 122.492188 -134.425781 124.085938 -135.84375 124.796875 -137.96875 C 124.941406 -138.53125 125.367188 -138.8125 126.078125 -138.8125 C 126.785156 -138.8125 127.140625 -138.53125 127.140625 -137.96875 C 126.710938 -133.863281 126.285156 -127.53125 125.859375 -118.96875 C 125.441406 -110.40625 125.234375 -103.503906 125.234375 -98.265625 C 125.234375 -97.984375 124.84375 -97.84375 124.0625 -97.84375 C 123.28125 -97.84375 122.820312 -97.984375 122.6875 -98.265625 C 122.113281 -109.160156 119.597656 -116.941406 115.140625 -121.609375 C 110.679688 -126.285156 103.785156 -128.625 94.453125 -128.625 C 88.796875 -128.625 84.726562 -128.335938 82.25 -127.765625 C 79.769531 -127.203125 78.066406 -126 77.140625 -124.15625 C 76.222656 -122.320312 75.765625 -119.285156 75.765625 -115.046875 L 75.765625 -17.1875 C 75.765625 -12.800781 76.222656 -9.617188 77.140625 -7.640625 C 78.066406 -5.660156 79.910156 -4.316406 82.671875 -3.609375 C 85.429688 -2.898438 89.851562 -2.546875 95.9375 -2.546875 C 96.21875 -2.546875 96.359375 -2.117188 96.359375 -1.265625 C 96.359375 -0.421875 96.21875 0 95.9375 0 C 91.125 0 87.300781 -0.0703125 84.46875 -0.21875 L 67.703125 -0.421875 L 51.578125 -0.21875 C 48.742188 -0.0703125 44.78125 0 39.6875 0 C 39.40625 0 39.265625 -0.421875 39.265625 -1.265625 C 39.265625 -2.117188 39.40625 -2.546875 39.6875 -2.546875 C 45.632812 -2.546875 50.019531 -2.898438 52.84375 -3.609375 C 55.675781 -4.316406 57.585938 -5.695312 58.578125 -7.75 C 59.566406 -9.800781 60.0625 -12.945312 60.0625 -17.1875 L 60.0625 -115.46875 C 60.0625 -119.570312 59.601562 -122.503906 58.6875 -124.265625 C 57.769531 -126.035156 56.070312 -127.203125 53.59375 -127.765625 C 51.113281 -128.335938 46.972656 -128.625 41.171875 -128.625 Z M 41.171875 -128.625 "/></g></g></g><g fill="#523e27" fill-opacity="1"><g transform="translate(183.047311, 242.228194)"><g><path d="M 145.8125 -2.546875 C 146.238281 -2.546875 146.453125 -2.117188 146.453125 -1.265625 C 146.453125 -0.421875 146.238281 0 145.8125 0 L 116.734375 0 C 113.335938 0 106.9375 -5.765625 97.53125 -17.296875 C 88.125 -28.828125 76.625 -44.921875 63.03125 -65.578125 C 59.21875 -64.878906 55.679688 -64.53125 52.421875 -64.53125 C 51.710938 -64.53125 48.390625 -64.738281 42.453125 -65.15625 L 42.453125 -17.1875 C 42.453125 -12.800781 42.875 -9.617188 43.71875 -7.640625 C 44.570312 -5.660156 46.203125 -4.316406 48.609375 -3.609375 C 51.015625 -2.898438 54.832031 -2.546875 60.0625 -2.546875 C 60.488281 -2.546875 60.703125 -2.117188 60.703125 -1.265625 C 60.703125 -0.421875 60.488281 0 60.0625 0 C 55.539062 0 52.078125 -0.0703125 49.671875 -0.21875 L 34.59375 -0.421875 L 19.953125 -0.21875 C 17.265625 -0.0703125 13.65625 0 9.125 0 C 8.84375 0 8.703125 -0.421875 8.703125 -1.265625 C 8.703125 -2.117188 8.84375 -2.546875 9.125 -2.546875 C 14.363281 -2.546875 18.1875 -2.898438 20.59375 -3.609375 C 23 -4.316406 24.660156 -5.695312 25.578125 -7.75 C 26.492188 -9.800781 26.953125 -12.945312 26.953125 -17.1875 L 26.953125 -115.46875 C 26.953125 -119.707031 26.523438 -122.816406 25.671875 -124.796875 C 24.828125 -126.785156 23.203125 -128.164062 20.796875 -128.9375 C 18.390625 -129.71875 14.640625 -130.109375 9.546875 -130.109375 C 9.128906 -130.109375 8.921875 -130.53125 8.921875 -131.375 C 8.921875 -132.226562 9.128906 -132.65625 9.546875 -132.65625 L 19.953125 -132.4375 C 25.890625 -132.15625 30.769531 -132.015625 34.59375 -132.015625 C 37.5625 -132.015625 40.390625 -132.082031 43.078125 -132.21875 C 45.773438 -132.363281 48.113281 -132.507812 50.09375 -132.65625 C 55.320312 -133.082031 60.203125 -133.296875 64.734375 -133.296875 C 76.054688 -133.296875 84.863281 -130.78125 91.15625 -125.75 C 97.457031 -120.726562 100.609375 -113.972656 100.609375 -105.484375 C 100.609375 -97.847656 98.378906 -90.914062 93.921875 -84.6875 C 89.460938 -78.457031 83.554688 -73.578125 76.203125 -70.046875 C 88.085938 -52.921875 98.023438 -39.546875 106.015625 -29.921875 C 114.015625 -20.304688 121.160156 -13.335938 127.453125 -9.015625 C 133.753906 -4.703125 139.875 -2.546875 145.8125 -2.546875 Z M 42.453125 -70.25 C 46.410156 -69.832031 50.582031 -69.625 54.96875 -69.625 C 65.582031 -69.625 73.148438 -71.992188 77.671875 -76.734375 C 82.203125 -81.472656 84.46875 -88.863281 84.46875 -98.90625 C 84.46875 -110.082031 82.132812 -118.039062 77.46875 -122.78125 C 72.800781 -127.519531 66.082031 -129.890625 57.3125 -129.890625 C 51.789062 -129.890625 47.929688 -128.863281 45.734375 -126.8125 C 43.546875 -124.757812 42.453125 -120.835938 42.453125 -115.046875 Z M 42.453125 -70.25 "/></g></g></g><g clip-path="url(#d8c0cef140)"><path fill="#e8cfc1" d="M 28.816406 162.882812 L 345.972656 162.882812 L 345.972656 199.632812 L 28.816406 199.632812 L 28.816406 162.882812 " fill-opacity="1" fill-rule="nonzero"/></g><g fill="#523e27" fill-opacity="1"><g transform="translate(129.259677, 189.307525)"><g><path d="M 12.855469 0.914062 C 15.023438 0.0703125 16.710938 -3.683594 17.816406 -7.054688 C 17.984375 -7.585938 18.347656 -8.042969 18.828125 -8.304688 C 20.273438 -9.125 21.695312 -9.871094 22.921875 -10.472656 C 23.234375 -10.617188 23.378906 -11.003906 23.210938 -11.316406 C 23.066406 -11.628906 22.679688 -11.773438 22.367188 -11.605469 C 22.054688 -11.460938 21.089844 -11.003906 19.839844 -10.328125 C 19.621094 -10.207031 19.359375 -10.234375 19.164062 -10.378906 C 18.972656 -10.523438 18.902344 -10.761719 18.949219 -11.003906 C 19.164062 -11.847656 19.285156 -12.449219 19.335938 -12.6875 C 19.382812 -12.929688 19.285156 -13.195312 19.046875 -13.339844 C 18.828125 -13.484375 18.539062 -13.484375 18.324219 -13.316406 C 18.25 -13.242188 9.246094 -6.5 4.1875 -9.34375 C 2.527344 -10.28125 2.359375 -12.207031 2.503906 -13.652344 C 2.984375 -18.660156 7.921875 -25.472656 14.445312 -27.59375 C 17.289062 -28.53125 19.238281 -28.027344 19.910156 -26.195312 C 21.066406 -23.210938 18.539062 -17.023438 11.992188 -14.179688 C 11.652344 -14.035156 11.507812 -13.652344 11.652344 -13.339844 C 11.796875 -13.027344 12.160156 -12.882812 12.496094 -13.027344 C 19.261719 -15.964844 22.632812 -22.65625 21.117188 -26.652344 C 20.152344 -29.132812 17.527344 -29.929688 14.0625 -28.796875 C 7.054688 -26.507812 1.78125 -19.191406 1.226562 -13.773438 C 0.988281 -11.195312 1.804688 -9.246094 3.5625 -8.257812 C 7.609375 -5.972656 13.433594 -8.738281 16.683594 -10.691406 C 16.855469 -10.8125 17.070312 -10.785156 17.238281 -10.667969 C 17.40625 -10.523438 17.480469 -10.304688 17.40625 -10.113281 L 17.117188 -9.078125 C 17.046875 -8.859375 16.902344 -8.667969 16.710938 -8.546875 C 13.195312 -6.429688 9.367188 -3.636719 9.199219 -1.445312 C 9.125 -0.625 9.535156 0.144531 10.207031 0.554688 C 10.714844 0.914062 11.292969 1.109375 11.894531 1.109375 C 12.207031 1.109375 12.542969 1.035156 12.855469 0.914062 Z M 15.746094 -5.128906 C 14.808594 -2.769531 13.652344 -0.746094 12.398438 -0.242188 C 11.894531 -0.0703125 11.339844 -0.144531 10.957031 -0.480469 C 10.472656 -0.820312 10.425781 -1.109375 10.449219 -1.324219 C 10.546875 -2.503906 12.425781 -4.164062 14.855469 -5.851562 C 15.074219 -5.996094 15.359375 -5.996094 15.578125 -5.828125 C 15.792969 -5.65625 15.867188 -5.371094 15.746094 -5.128906 Z M 15.746094 -5.128906 "/></g></g></g><g fill="#523e27" fill-opacity="1"><g transform="translate(150.12987, 189.307525)"><g><path d="M 20.199219 -6.1875 C 20.082031 -6.308594 19.9375 -6.40625 19.765625 -6.40625 C 19.597656 -6.429688 19.429688 -6.378906 19.308594 -6.285156 C 19.214844 -6.210938 9.945312 1.15625 2.214844 -2.023438 C 0.648438 -2.671875 0.578125 -3.515625 0.625 -3.972656 C 0.625 -4.046875 0.648438 -4.117188 0.722656 -4.164062 C 0.769531 -4.214844 0.867188 -4.214844 0.9375 -4.1875 C 2.503906 -4.09375 4.070312 -4.503906 5.417969 -5.34375 C 6.574219 -6.089844 6.765625 -6.910156 6.695312 -7.441406 C 6.644531 -8.304688 5.945312 -9.003906 5.054688 -9.027344 C 3.152344 -9.125 -0.0234375 -6.863281 -0.554688 -4.453125 C -0.769531 -3.5625 -0.746094 -1.878906 1.734375 -0.867188 C 3.25 -0.242188 4.839844 0.046875 6.453125 0.046875 C 13.363281 0.046875 19.765625 -5.03125 20.105469 -5.296875 C 20.226562 -5.394531 20.320312 -5.5625 20.320312 -5.707031 C 20.34375 -5.875 20.296875 -6.042969 20.199219 -6.1875 Z M 1.492188 -5.65625 C 2.433594 -6.957031 3.996094 -7.824219 4.984375 -7.753906 C 5.25 -7.753906 5.394531 -7.65625 5.441406 -7.296875 C 5.464844 -7.054688 5.199219 -6.71875 4.71875 -6.40625 C 3.730469 -5.753906 0.769531 -4.695312 1.492188 -5.65625 Z M 1.492188 -5.65625 "/></g></g></g><g fill="#523e27" fill-opacity="1"><g transform="translate(169.411327, 189.307525)"><g><path d="M 16.515625 -6.667969 C 16.398438 -6.789062 16.253906 -6.839844 16.082031 -6.839844 C 15.914062 -6.839844 15.746094 -6.789062 15.625 -6.667969 C 13.316406 -4.476562 10.472656 -2.9375 7.367188 -2.191406 C 7.246094 -2.144531 7.101562 -2.191406 7.03125 -2.289062 C 6.957031 -2.40625 6.933594 -2.527344 7.007812 -2.648438 C 7.441406 -3.492188 7.34375 -4.503906 6.789062 -5.273438 C 6.453125 -5.730469 6.019531 -6.117188 5.515625 -6.40625 C 4.839844 -6.863281 4.09375 -7.390625 4.070312 -7.945312 C 4.09375 -8.257812 4.214844 -8.546875 4.429688 -8.789062 L 5.730469 -10.015625 C 5.972656 -10.257812 5.996094 -10.640625 5.777344 -10.882812 C 5.5625 -11.148438 5.199219 -11.195312 4.910156 -10.980469 C 4.40625 -10.59375 3.925781 -10.160156 3.515625 -9.65625 L -0.191406 -6.1875 C -0.359375 -6.042969 -0.433594 -5.800781 -0.386719 -5.585938 C -0.335938 -5.34375 -0.167969 -5.175781 0.046875 -5.105469 C 0.265625 -5.054688 0.503906 -5.105469 0.675781 -5.273438 L 2.503906 -6.980469 C 2.601562 -7.078125 2.722656 -7.101562 2.839844 -7.101562 C 2.960938 -7.078125 3.058594 -7.007812 3.105469 -6.910156 C 3.5625 -6.285156 4.140625 -5.753906 4.792969 -5.371094 C 5.152344 -5.152344 5.464844 -4.910156 5.730469 -4.597656 C 5.972656 -4.332031 6.089844 -3.972656 6.019531 -3.613281 C 5.945312 -3.25 5.730469 -2.9375 5.417969 -2.769531 C 3.875 -1.902344 1.925781 -2.3125 0.867188 -3.730469 C 0.699219 -3.996094 0.3125 -4.09375 0.0234375 -3.902344 C -0.265625 -3.730469 -0.359375 -3.371094 -0.191406 -3.058594 C 0.601562 -1.683594 2.023438 -0.792969 3.613281 -0.675781 C 4.019531 -0.601562 4.40625 -0.578125 4.816406 -0.578125 C 8.882812 -0.578125 13.890625 -3.128906 16.515625 -5.777344 C 16.757812 -6.019531 16.757812 -6.429688 16.515625 -6.667969 Z M 16.515625 -6.667969 "/></g></g></g><g fill="#523e27" fill-opacity="1"><g transform="translate(184.961668, 189.307525)"><g><path d="M 16.515625 -6.550781 C 16.277344 -6.789062 15.867188 -6.789062 15.625 -6.523438 C 15.578125 -6.476562 9.054688 0.0976562 4.71875 -1.539062 C 2.792969 -2.289062 1.972656 -4.527344 1.660156 -6.742188 C 2.09375 -7.800781 2.816406 -9.558594 3.492188 -11.53125 C 3.5625 -11.773438 3.636719 -11.796875 3.925781 -11.820312 C 7.175781 -12.0625 10.402344 -12.183594 12.304688 -12.183594 C 12.664062 -12.183594 12.929688 -12.472656 12.929688 -12.808594 C 12.929688 -13.171875 12.664062 -13.433594 12.304688 -13.433594 C 10.472656 -13.433594 7.464844 -13.289062 4.382812 -13.121094 C 4.261719 -13.097656 4.046875 -13.171875 4.214844 -13.605469 C 5.371094 -16.902344 6.1875 -20.25 5.683594 -21.261719 C 5.175781 -22.269531 4.503906 -22.296875 4.164062 -22.222656 C 2.382812 -21.886719 1.082031 -17.261719 0.503906 -13.484375 C 0.457031 -13.144531 0.289062 -12.855469 -0.0234375 -12.832031 C -3.804688 -12.542969 -6.910156 -12.328125 -6.957031 -12.328125 C -7.320312 -12.304688 -7.585938 -12.015625 -7.558594 -11.652344 C -7.558594 -11.316406 -7.269531 -11.027344 -6.910156 -11.050781 L -6.863281 -11.050781 C -6.789062 -11.050781 -3.875 -11.269531 -0.242188 -11.53125 C -0.121094 -11.558594 0 -11.53125 0.0976562 -11.4375 C 0.191406 -11.363281 0.265625 -11.242188 0.265625 -11.125 C -0.0976562 -5.394531 1.347656 -1.46875 4.261719 -0.359375 C 4.886719 -0.144531 5.539062 -0.0234375 6.210938 -0.0234375 C 10.980469 -0.0234375 16.277344 -5.394531 16.542969 -5.632812 C 16.660156 -5.753906 16.710938 -5.921875 16.710938 -6.089844 C 16.710938 -6.261719 16.636719 -6.429688 16.515625 -6.550781 Z M 1.78125 -13.53125 C 2.335938 -17.191406 3.441406 -20.082031 4.09375 -20.828125 C 4.164062 -20.875 4.261719 -20.898438 4.359375 -20.875 C 4.429688 -20.851562 4.503906 -20.800781 4.550781 -20.707031 C 4.839844 -20.082031 4.019531 -17.023438 2.792969 -13.386719 C 2.746094 -13.171875 2.578125 -13 2.335938 -12.976562 C 2.214844 -12.953125 2.09375 -12.953125 1.949219 -12.953125 C 1.710938 -12.953125 1.757812 -13.339844 1.78125 -13.507812 Z M 1.492188 -9.75 C 1.253906 -9.75 1.347656 -11.4375 1.566406 -11.675781 C 1.757812 -11.796875 2 -11.820312 2.191406 -11.703125 C 2.40625 -11.507812 1.757812 -9.75 1.492188 -9.75 Z M 1.492188 -9.75 "/></g></g></g><g fill="#523e27" fill-opacity="1"><g transform="translate(200.343504, 189.307525)"><g><path d="M 20.515625 -5.417969 C 20.273438 -5.683594 19.886719 -5.707031 19.621094 -5.464844 C 19.550781 -5.394531 12.398438 1.058594 7.945312 -1.878906 C 6.210938 -3.035156 5.777344 -5.828125 5.777344 -5.851562 C 5.730469 -6.140625 5.515625 -6.355469 5.226562 -6.40625 C 4.960938 -6.429688 4.695312 -6.285156 4.574219 -6.042969 C 3.417969 -3.539062 1.613281 -0.746094 0.867188 -0.722656 C 0.820312 -0.722656 0.722656 -0.820312 0.648438 -0.988281 C 0.359375 -1.539062 0.457031 -2.433594 0.890625 -3.394531 C 1.539062 -4.816406 3.082031 -6.550781 5.488281 -7.125 C 5.828125 -7.199219 6.042969 -7.535156 5.945312 -7.875 C 5.875 -8.234375 5.539062 -8.425781 5.199219 -8.355469 C 2.359375 -7.65625 0.503906 -5.609375 -0.265625 -3.902344 C -0.867188 -2.601562 -0.9375 -1.324219 -0.480469 -0.410156 C -0.0703125 0.359375 0.457031 0.53125 0.867188 0.53125 C 0.867188 0.53125 0.890625 0.53125 0.890625 0.53125 C 1.972656 0.503906 3.152344 -0.964844 4.117188 -2.480469 C 4.476562 -3.058594 5.320312 -3.082031 5.683594 -2.503906 C 6.066406 -1.878906 6.597656 -1.277344 7.246094 -0.84375 C 12.496094 2.648438 20.152344 -4.238281 20.464844 -4.527344 C 20.730469 -4.765625 20.753906 -5.175781 20.515625 -5.417969 Z M 0.0703125 -10.667969 C 0.433594 -11.484375 1.058594 -12.109375 1.78125 -12.351562 C 2.3125 -12.542969 2.839844 -12.519531 3.296875 -12.304688 C 3.730469 -12.109375 4.140625 -11.773438 4.574219 -11.386719 C 5.054688 -10.980469 5.5625 -10.546875 6.140625 -10.28125 C 6.453125 -10.136719 6.765625 -10.089844 7.101562 -10.089844 C 7.558594 -10.089844 8.019531 -10.207031 8.425781 -10.472656 C 9.101562 -10.90625 9.511719 -11.652344 9.511719 -12.496094 C 9.511719 -12.832031 9.222656 -13.121094 8.882812 -13.121094 C 8.523438 -13.121094 8.257812 -12.832031 8.234375 -12.496094 C 8.234375 -11.964844 7.96875 -11.675781 7.753906 -11.53125 C 7.414062 -11.316406 7.007812 -11.292969 6.667969 -11.4375 C 6.234375 -11.628906 5.828125 -11.992188 5.394531 -12.351562 C 4.910156 -12.761719 4.429688 -13.171875 3.851562 -13.460938 C 3.082031 -13.820312 2.191406 -13.84375 1.347656 -13.554688 C 0.3125 -13.171875 -0.578125 -12.328125 -1.082031 -11.195312 C -1.226562 -10.882812 -1.082031 -10.496094 -0.769531 -10.351562 C -0.457031 -10.207031 -0.0976562 -10.351562 0.0703125 -10.667969 Z M 0.0703125 -10.667969 "/></g></g></g><g fill="#523e27" fill-opacity="1"><g transform="translate(220.154542, 189.307525)"><g><path d="M 17.550781 -6.839844 C 17.433594 -6.957031 17.289062 -7.007812 17.117188 -7.007812 C 16.949219 -7.007812 16.78125 -6.957031 16.660156 -6.839844 C 13.773438 -3.949219 9.679688 -2.625 5.65625 -3.296875 C 5.34375 -3.371094 5.128906 -3.660156 5.175781 -3.972656 C 5.371094 -5.128906 5.273438 -6.308594 4.597656 -6.695312 C 4.164062 -6.933594 3.515625 -6.957031 2.746094 -5.65625 C 2.457031 -5.226562 2.359375 -4.695312 2.457031 -4.1875 C 2.578125 -3.683594 2.890625 -3.226562 3.324219 -2.960938 C 3.585938 -2.746094 3.273438 -2.382812 3.105469 -2.214844 C 2.648438 -1.660156 1.855469 -1.566406 1.300781 -2 C 0.601562 -2.3125 0.289062 -3.082031 0.554688 -3.78125 C 0.867188 -5.054688 2.117188 -6.164062 2.578125 -6.164062 C 2.914062 -6.164062 3.203125 -6.453125 3.203125 -6.789062 C 3.226562 -7.125 2.9375 -7.414062 2.601562 -7.441406 L 2.578125 -7.441406 C 1.371094 -7.441406 -0.242188 -5.800781 -0.675781 -4.09375 C -1.082031 -2.839844 -0.503906 -1.46875 0.699219 -0.890625 C 1.15625 -0.625 1.660156 -0.503906 2.191406 -0.480469 C 3.226562 -0.53125 4.140625 -1.15625 4.574219 -2.117188 C 4.621094 -2.191406 4.742188 -2.238281 4.839844 -2.214844 C 7.898438 -1.300781 13.484375 -1.878906 17.550781 -5.921875 C 17.671875 -6.042969 17.746094 -6.210938 17.746094 -6.378906 C 17.746094 -6.550781 17.671875 -6.71875 17.550781 -6.839844 Z M 3.925781 -4.09375 C 3.660156 -4.332031 3.613281 -4.71875 3.828125 -5.007812 C 3.902344 -5.128906 3.949219 -5.199219 3.996094 -5.273438 C 4.019531 -4.886719 3.996094 -4.476562 3.925781 -4.09375 Z M 3.925781 -4.09375 "/></g></g></g><g fill="#523e27" fill-opacity="1"><g transform="translate(236.783391, 189.307525)"><g/></g></g><g fill="#523e27" fill-opacity="1"><g transform="translate(104.742954, 266.11882)"><g><path d="M 6.578125 0.1875 C 5.390625 0.1875 4.359375 -0.046875 3.484375 -0.515625 C 2.609375 -0.984375 1.9375 -1.613281 1.46875 -2.40625 C 1.007812 -3.195312 0.78125 -4.078125 0.78125 -5.046875 C 0.78125 -6.066406 1.046875 -6.960938 1.578125 -7.734375 C 2.109375 -8.515625 2.832031 -9.113281 3.75 -9.53125 C 4.664062 -9.957031 5.691406 -10.171875 6.828125 -10.171875 C 7.398438 -10.171875 7.929688 -10.117188 8.421875 -10.015625 C 8.921875 -9.921875 9.328125 -9.773438 9.640625 -9.578125 C 9.734375 -9.535156 9.785156 -9.5 9.796875 -9.46875 C 9.816406 -9.445312 9.832031 -9.367188 9.84375 -9.234375 L 10.046875 -7.296875 C 10.046875 -7.265625 10.015625 -7.242188 9.953125 -7.234375 C 9.898438 -7.222656 9.867188 -7.234375 9.859375 -7.265625 C 9.617188 -8.046875 9.222656 -8.679688 8.671875 -9.171875 C 8.117188 -9.660156 7.382812 -9.90625 6.46875 -9.90625 C 5.65625 -9.90625 4.921875 -9.71875 4.265625 -9.34375 C 3.609375 -8.96875 3.085938 -8.425781 2.703125 -7.71875 C 2.328125 -7.019531 2.140625 -6.207031 2.140625 -5.28125 C 2.140625 -4.351562 2.328125 -3.488281 2.703125 -2.6875 C 3.078125 -1.894531 3.628906 -1.253906 4.359375 -0.765625 C 5.085938 -0.285156 5.960938 -0.046875 6.984375 -0.046875 C 7.722656 -0.046875 8.238281 -0.1875 8.53125 -0.46875 C 8.820312 -0.75 8.96875 -1.257812 8.96875 -2 C 8.96875 -2.550781 8.929688 -2.9375 8.859375 -3.15625 C 8.796875 -3.375 8.648438 -3.519531 8.421875 -3.59375 C 8.191406 -3.675781 7.785156 -3.71875 7.203125 -3.71875 C 7.140625 -3.71875 7.109375 -3.757812 7.109375 -3.84375 C 7.109375 -3.875 7.113281 -3.898438 7.125 -3.921875 C 7.144531 -3.953125 7.164062 -3.96875 7.1875 -3.96875 C 8.039062 -3.914062 8.726562 -3.890625 9.25 -3.890625 C 9.75 -3.890625 10.28125 -3.90625 10.84375 -3.9375 C 10.882812 -3.9375 10.90625 -3.898438 10.90625 -3.828125 C 10.914062 -3.753906 10.894531 -3.71875 10.84375 -3.71875 C 10.59375 -3.726562 10.414062 -3.691406 10.3125 -3.609375 C 10.207031 -3.523438 10.140625 -3.359375 10.109375 -3.109375 C 10.078125 -2.867188 10.0625 -2.445312 10.0625 -1.84375 C 10.0625 -1.363281 10.078125 -1.019531 10.109375 -0.8125 C 10.148438 -0.613281 10.171875 -0.488281 10.171875 -0.4375 C 10.171875 -0.375 10.160156 -0.328125 10.140625 -0.296875 C 10.117188 -0.273438 10.070312 -0.253906 10 -0.234375 C 8.675781 0.046875 7.535156 0.1875 6.578125 0.1875 Z M 6.578125 0.1875 "/></g></g></g><g fill="#523e27" fill-opacity="1"><g transform="translate(116.212199, 266.11882)"><g><path d="M 7.65625 -2.40625 C 7.65625 -2.4375 7.6875 -2.445312 7.75 -2.4375 C 7.820312 -2.4375 7.859375 -2.421875 7.859375 -2.390625 C 7.765625 -1.691406 7.71875 -0.972656 7.71875 -0.234375 C 7.71875 -0.148438 7.695312 -0.0859375 7.65625 -0.046875 C 7.613281 -0.015625 7.546875 0 7.453125 0 L 0.6875 0 C 0.664062 0 0.65625 -0.03125 0.65625 -0.09375 C 0.65625 -0.15625 0.664062 -0.1875 0.6875 -0.1875 C 1.082031 -0.1875 1.367188 -0.210938 1.546875 -0.265625 C 1.734375 -0.328125 1.859375 -0.429688 1.921875 -0.578125 C 1.984375 -0.734375 2.015625 -0.972656 2.015625 -1.296875 L 2.015625 -8.703125 C 2.015625 -9.023438 1.984375 -9.257812 1.921875 -9.40625 C 1.859375 -9.550781 1.734375 -9.65625 1.546875 -9.71875 C 1.367188 -9.78125 1.082031 -9.8125 0.6875 -9.8125 C 0.664062 -9.8125 0.65625 -9.84375 0.65625 -9.90625 C 0.65625 -9.96875 0.664062 -10 0.6875 -10 L 7.1875 -10 C 7.28125 -10 7.328125 -9.953125 7.328125 -9.859375 L 7.359375 -7.859375 C 7.359375 -7.828125 7.328125 -7.8125 7.265625 -7.8125 C 7.210938 -7.8125 7.1875 -7.828125 7.1875 -7.859375 C 7.125 -8.429688 6.925781 -8.867188 6.59375 -9.171875 C 6.257812 -9.484375 5.828125 -9.640625 5.296875 -9.640625 L 4.421875 -9.640625 C 3.910156 -9.640625 3.578125 -9.570312 3.421875 -9.4375 C 3.265625 -9.300781 3.1875 -9.035156 3.1875 -8.640625 L 3.1875 -5.375 L 5.03125 -5.375 C 5.5625 -5.375 5.945312 -5.460938 6.1875 -5.640625 C 6.425781 -5.828125 6.546875 -6.125 6.546875 -6.53125 C 6.546875 -6.550781 6.578125 -6.5625 6.640625 -6.5625 C 6.703125 -6.5625 6.734375 -6.550781 6.734375 -6.53125 L 6.71875 -5.203125 C 6.71875 -4.890625 6.722656 -4.65625 6.734375 -4.5 L 6.75 -3.703125 C 6.75 -3.671875 6.71875 -3.65625 6.65625 -3.65625 C 6.59375 -3.65625 6.5625 -3.671875 6.5625 -3.703125 C 6.5625 -4.171875 6.4375 -4.507812 6.1875 -4.71875 C 5.945312 -4.925781 5.546875 -5.03125 4.984375 -5.03125 L 3.1875 -5.03125 L 3.1875 -1.359375 C 3.1875 -1.078125 3.21875 -0.867188 3.28125 -0.734375 C 3.34375 -0.597656 3.453125 -0.5 3.609375 -0.4375 C 3.773438 -0.382812 4.023438 -0.359375 4.359375 -0.359375 L 5.484375 -0.359375 C 6.054688 -0.359375 6.523438 -0.535156 6.890625 -0.890625 C 7.265625 -1.242188 7.519531 -1.75 7.65625 -2.40625 Z M 7.65625 -2.40625 "/></g></g></g><g fill="#523e27" fill-opacity="1"><g transform="translate(124.850119, 266.11882)"><g><path d="M 2.40625 -8.171875 C 2.40625 -7.765625 2.503906 -7.40625 2.703125 -7.09375 C 2.910156 -6.789062 3.15625 -6.53125 3.4375 -6.3125 C 3.726562 -6.101562 4.132812 -5.84375 4.65625 -5.53125 C 5.195312 -5.207031 5.625 -4.925781 5.9375 -4.6875 C 6.25 -4.457031 6.515625 -4.164062 6.734375 -3.8125 C 6.953125 -3.457031 7.0625 -3.039062 7.0625 -2.5625 C 7.0625 -2.039062 6.925781 -1.570312 6.65625 -1.15625 C 6.394531 -0.738281 6.015625 -0.410156 5.515625 -0.171875 C 5.015625 0.0664062 4.425781 0.1875 3.75 0.1875 C 2.882812 0.1875 2.113281 -0.00390625 1.4375 -0.390625 C 1.382812 -0.421875 1.347656 -0.457031 1.328125 -0.5 C 1.304688 -0.539062 1.289062 -0.601562 1.28125 -0.6875 L 1.109375 -2.921875 C 1.097656 -2.960938 1.117188 -2.988281 1.171875 -3 C 1.234375 -3.019531 1.269531 -3.003906 1.28125 -2.953125 C 1.488281 -2.171875 1.820312 -1.5 2.28125 -0.9375 C 2.738281 -0.375 3.347656 -0.09375 4.109375 -0.09375 C 4.628906 -0.09375 5.066406 -0.226562 5.421875 -0.5 C 5.773438 -0.78125 5.953125 -1.238281 5.953125 -1.875 C 5.953125 -2.351562 5.84375 -2.765625 5.625 -3.109375 C 5.414062 -3.453125 5.160156 -3.742188 4.859375 -3.984375 C 4.554688 -4.234375 4.140625 -4.507812 3.609375 -4.8125 C 3.085938 -5.144531 2.679688 -5.421875 2.390625 -5.640625 C 2.109375 -5.859375 1.863281 -6.132812 1.65625 -6.46875 C 1.457031 -6.800781 1.359375 -7.195312 1.359375 -7.65625 C 1.359375 -8.207031 1.5 -8.671875 1.78125 -9.046875 C 2.070312 -9.421875 2.453125 -9.703125 2.921875 -9.890625 C 3.390625 -10.078125 3.890625 -10.171875 4.421875 -10.171875 C 5.078125 -10.171875 5.707031 -10.050781 6.3125 -9.8125 C 6.476562 -9.738281 6.5625 -9.640625 6.5625 -9.515625 L 6.65625 -7.59375 C 6.65625 -7.550781 6.625 -7.523438 6.5625 -7.515625 C 6.507812 -7.503906 6.476562 -7.519531 6.46875 -7.5625 C 6.351562 -8.132812 6.109375 -8.671875 5.734375 -9.171875 C 5.367188 -9.671875 4.832031 -9.921875 4.125 -9.921875 C 3.5625 -9.921875 3.132812 -9.753906 2.84375 -9.421875 C 2.550781 -9.085938 2.40625 -8.671875 2.40625 -8.171875 Z M 2.40625 -8.171875 "/></g></g></g><g fill="#523e27" fill-opacity="1"><g transform="translate(132.768217, 266.11882)"><g><path d="M 3.109375 -9.703125 C 2.441406 -9.703125 1.929688 -9.519531 1.578125 -9.15625 C 1.222656 -8.800781 0.960938 -8.21875 0.796875 -7.40625 C 0.785156 -7.375 0.75 -7.359375 0.6875 -7.359375 C 0.632812 -7.367188 0.609375 -7.382812 0.609375 -7.40625 C 0.648438 -7.707031 0.695312 -8.1875 0.75 -8.84375 C 0.800781 -9.507812 0.828125 -10.015625 0.828125 -10.359375 C 0.828125 -10.410156 0.859375 -10.4375 0.921875 -10.4375 C 0.992188 -10.4375 1.03125 -10.410156 1.03125 -10.359375 C 1.03125 -10.117188 1.316406 -10 1.890625 -10 C 2.804688 -9.96875 3.878906 -9.953125 5.109375 -9.953125 C 5.734375 -9.953125 6.398438 -9.960938 7.109375 -9.984375 L 8.1875 -10 C 8.570312 -10 8.859375 -10.023438 9.046875 -10.078125 C 9.234375 -10.128906 9.351562 -10.238281 9.40625 -10.40625 C 9.414062 -10.445312 9.445312 -10.46875 9.5 -10.46875 C 9.550781 -10.46875 9.578125 -10.445312 9.578125 -10.40625 C 9.546875 -10.09375 9.515625 -9.613281 9.484375 -8.96875 C 9.453125 -8.320312 9.4375 -7.800781 9.4375 -7.40625 C 9.4375 -7.382812 9.40625 -7.375 9.34375 -7.375 C 9.289062 -7.375 9.257812 -7.382812 9.25 -7.40625 C 9.207031 -8.226562 9.015625 -8.816406 8.671875 -9.171875 C 8.335938 -9.523438 7.820312 -9.703125 7.125 -9.703125 C 6.695312 -9.703125 6.390625 -9.675781 6.203125 -9.625 C 6.015625 -9.582031 5.882812 -9.492188 5.8125 -9.359375 C 5.75 -9.222656 5.71875 -8.992188 5.71875 -8.671875 L 5.71875 -1.296875 C 5.71875 -0.960938 5.75 -0.722656 5.8125 -0.578125 C 5.882812 -0.429688 6.023438 -0.328125 6.234375 -0.265625 C 6.441406 -0.210938 6.773438 -0.1875 7.234375 -0.1875 C 7.253906 -0.1875 7.265625 -0.15625 7.265625 -0.09375 C 7.265625 -0.03125 7.253906 0 7.234375 0 C 6.867188 0 6.582031 -0.00390625 6.375 -0.015625 L 5.109375 -0.03125 L 3.890625 -0.015625 C 3.671875 -0.00390625 3.367188 0 2.984375 0 C 2.960938 0 2.953125 -0.03125 2.953125 -0.09375 C 2.953125 -0.15625 2.960938 -0.1875 2.984375 -0.1875 C 3.429688 -0.1875 3.757812 -0.210938 3.96875 -0.265625 C 4.1875 -0.328125 4.332031 -0.429688 4.40625 -0.578125 C 4.488281 -0.734375 4.53125 -0.972656 4.53125 -1.296875 L 4.53125 -8.703125 C 4.53125 -9.015625 4.492188 -9.234375 4.421875 -9.359375 C 4.347656 -9.492188 4.21875 -9.582031 4.03125 -9.625 C 3.851562 -9.675781 3.546875 -9.703125 3.109375 -9.703125 Z M 3.109375 -9.703125 "/></g></g></g><g fill="#523e27" fill-opacity="1"><g transform="translate(142.941774, 266.11882)"><g><path d="M 3.453125 -11.46875 C 3.421875 -11.46875 3.394531 -11.476562 3.375 -11.5 C 3.351562 -11.53125 3.351562 -11.554688 3.375 -11.578125 C 3.550781 -11.847656 3.757812 -12.085938 4 -12.296875 C 4.238281 -12.515625 4.484375 -12.625 4.734375 -12.625 C 4.878906 -12.625 5.144531 -12.570312 5.53125 -12.46875 C 6.019531 -12.3125 6.414062 -12.234375 6.71875 -12.234375 C 6.894531 -12.234375 7.039062 -12.269531 7.15625 -12.34375 C 7.28125 -12.414062 7.398438 -12.523438 7.515625 -12.671875 L 7.53125 -12.671875 C 7.5625 -12.671875 7.585938 -12.65625 7.609375 -12.625 C 7.640625 -12.601562 7.644531 -12.582031 7.625 -12.5625 C 7.351562 -12.144531 7.125 -11.863281 6.9375 -11.71875 C 6.757812 -11.570312 6.566406 -11.5 6.359375 -11.5 C 6.210938 -11.5 6.054688 -11.515625 5.890625 -11.546875 C 5.722656 -11.585938 5.5625 -11.640625 5.40625 -11.703125 C 5.226562 -11.753906 5.039062 -11.800781 4.84375 -11.84375 C 4.644531 -11.882812 4.457031 -11.90625 4.28125 -11.90625 C 4.113281 -11.90625 3.984375 -11.878906 3.890625 -11.828125 C 3.796875 -11.773438 3.710938 -11.707031 3.640625 -11.625 C 3.566406 -11.550781 3.515625 -11.5 3.484375 -11.46875 Z M 11.234375 -0.1875 C 11.273438 -0.1875 11.296875 -0.15625 11.296875 -0.09375 C 11.296875 -0.03125 11.273438 0 11.234375 0 C 11.023438 0 10.707031 -0.0078125 10.28125 -0.03125 C 9.851562 -0.0507812 9.539062 -0.0625 9.34375 -0.0625 C 9.09375 -0.0625 8.789062 -0.0507812 8.4375 -0.03125 C 8.09375 -0.0078125 7.820312 0 7.625 0 C 7.582031 0 7.5625 -0.03125 7.5625 -0.09375 C 7.5625 -0.15625 7.582031 -0.1875 7.625 -0.1875 C 8.007812 -0.1875 8.285156 -0.222656 8.453125 -0.296875 C 8.617188 -0.367188 8.703125 -0.492188 8.703125 -0.671875 C 8.703125 -0.828125 8.628906 -1.066406 8.484375 -1.390625 L 7.109375 -4.265625 L 3.28125 -4.265625 L 2.34375 -2.078125 C 2.195312 -1.753906 2.125 -1.460938 2.125 -1.203125 C 2.125 -0.523438 2.644531 -0.1875 3.6875 -0.1875 C 3.738281 -0.1875 3.765625 -0.15625 3.765625 -0.09375 C 3.765625 -0.03125 3.738281 0 3.6875 0 C 3.488281 0 3.207031 -0.0078125 2.84375 -0.03125 C 2.4375 -0.0507812 2.085938 -0.0625 1.796875 -0.0625 C 1.523438 -0.0625 1.195312 -0.0507812 0.8125 -0.03125 C 0.5 -0.0078125 0.226562 0 0 0 C -0.0507812 0 -0.078125 -0.03125 -0.078125 -0.09375 C -0.078125 -0.15625 -0.0507812 -0.1875 0 -0.1875 C 0.300781 -0.1875 0.554688 -0.242188 0.765625 -0.359375 C 0.972656 -0.472656 1.171875 -0.671875 1.359375 -0.953125 C 1.546875 -1.242188 1.757812 -1.664062 2 -2.21875 L 5.375 -10.125 C 5.394531 -10.15625 5.4375 -10.171875 5.5 -10.171875 C 5.5625 -10.171875 5.597656 -10.15625 5.609375 -10.125 L 9.421875 -2.1875 C 9.785156 -1.414062 10.09375 -0.890625 10.34375 -0.609375 C 10.601562 -0.328125 10.898438 -0.1875 11.234375 -0.1875 Z M 3.421875 -4.609375 L 6.9375 -4.609375 L 5.09375 -8.484375 Z M 3.421875 -4.609375 "/></g></g></g><g fill="#523e27" fill-opacity="1"><g transform="translate(154.203068, 266.11882)"><g><path d="M 5.859375 0.1875 C 4.867188 0.1875 3.984375 -0.0390625 3.203125 -0.5 C 2.429688 -0.96875 1.832031 -1.597656 1.40625 -2.390625 C 0.988281 -3.179688 0.78125 -4.046875 0.78125 -4.984375 C 0.78125 -6.085938 1.054688 -7.03125 1.609375 -7.8125 C 2.171875 -8.59375 2.882812 -9.179688 3.75 -9.578125 C 4.625 -9.972656 5.515625 -10.171875 6.421875 -10.171875 C 7.429688 -10.171875 8.316406 -9.929688 9.078125 -9.453125 C 9.847656 -8.984375 10.4375 -8.359375 10.84375 -7.578125 C 11.257812 -6.804688 11.46875 -5.984375 11.46875 -5.109375 C 11.46875 -4.128906 11.210938 -3.234375 10.703125 -2.421875 C 10.191406 -1.617188 9.503906 -0.984375 8.640625 -0.515625 C 7.785156 -0.046875 6.859375 0.1875 5.859375 0.1875 Z M 6.421875 -0.15625 C 7.117188 -0.15625 7.75 -0.332031 8.3125 -0.6875 C 8.875 -1.039062 9.316406 -1.554688 9.640625 -2.234375 C 9.960938 -2.910156 10.125 -3.71875 10.125 -4.65625 C 10.125 -5.644531 9.945312 -6.53125 9.59375 -7.3125 C 9.238281 -8.09375 8.726562 -8.703125 8.0625 -9.140625 C 7.40625 -9.578125 6.640625 -9.796875 5.765625 -9.796875 C 4.617188 -9.796875 3.722656 -9.414062 3.078125 -8.65625 C 2.441406 -7.90625 2.125 -6.867188 2.125 -5.546875 C 2.125 -4.546875 2.304688 -3.632812 2.671875 -2.8125 C 3.035156 -1.988281 3.539062 -1.335938 4.1875 -0.859375 C 4.84375 -0.390625 5.585938 -0.15625 6.421875 -0.15625 Z M 6.421875 -0.15625 "/></g></g></g><g fill="#523e27" fill-opacity="1"><g transform="translate(166.456119, 266.11882)"><g/></g></g><g fill="#523e27" fill-opacity="1"><g transform="translate(170.199218, 266.11882)"><g><path d="M 4.90625 0.0625 C 4.59375 0.0625 4.226562 0.046875 3.8125 0.015625 C 3.644531 0.00390625 3.445312 -0.00390625 3.21875 -0.015625 C 2.988281 -0.0234375 2.738281 -0.03125 2.46875 -0.03125 L 1.359375 -0.015625 C 1.160156 -0.00390625 0.890625 0 0.546875 0 C 0.523438 0 0.515625 -0.03125 0.515625 -0.09375 C 0.515625 -0.15625 0.523438 -0.1875 0.546875 -0.1875 C 0.941406 -0.1875 1.226562 -0.210938 1.40625 -0.265625 C 1.59375 -0.328125 1.71875 -0.429688 1.78125 -0.578125 C 1.851562 -0.734375 1.890625 -0.972656 1.890625 -1.296875 L 1.890625 -8.703125 C 1.890625 -9.023438 1.859375 -9.257812 1.796875 -9.40625 C 1.734375 -9.550781 1.609375 -9.65625 1.421875 -9.71875 C 1.242188 -9.78125 0.957031 -9.8125 0.5625 -9.8125 C 0.539062 -9.8125 0.53125 -9.84375 0.53125 -9.90625 C 0.53125 -9.96875 0.539062 -10 0.5625 -10 L 1.359375 -9.984375 C 1.828125 -9.960938 2.195312 -9.953125 2.46875 -9.953125 C 2.875 -9.953125 3.269531 -9.96875 3.65625 -10 C 4.175781 -10.019531 4.519531 -10.03125 4.6875 -10.03125 C 5.800781 -10.03125 6.78125 -9.816406 7.625 -9.390625 C 8.476562 -8.960938 9.140625 -8.378906 9.609375 -7.640625 C 10.078125 -6.910156 10.3125 -6.085938 10.3125 -5.171875 C 10.3125 -4.128906 10.066406 -3.210938 9.578125 -2.421875 C 9.097656 -1.628906 8.445312 -1.015625 7.625 -0.578125 C 6.800781 -0.148438 5.894531 0.0625 4.90625 0.0625 Z M 4.75 -0.1875 C 5.570312 -0.1875 6.300781 -0.363281 6.9375 -0.71875 C 7.570312 -1.082031 8.066406 -1.613281 8.421875 -2.3125 C 8.773438 -3.007812 8.953125 -3.84375 8.953125 -4.8125 C 8.953125 -5.738281 8.78125 -6.578125 8.4375 -7.328125 C 8.101562 -8.085938 7.625 -8.6875 7 -9.125 C 6.375 -9.5625 5.648438 -9.78125 4.828125 -9.78125 C 4.367188 -9.78125 4.015625 -9.75 3.765625 -9.6875 C 3.523438 -9.632812 3.347656 -9.53125 3.234375 -9.375 C 3.117188 -9.226562 3.0625 -8.992188 3.0625 -8.671875 L 3.0625 -1.46875 C 3.0625 -1 3.175781 -0.664062 3.40625 -0.46875 C 3.632812 -0.28125 4.082031 -0.1875 4.75 -0.1875 Z M 4.75 -0.1875 "/></g></g></g><g fill="#523e27" fill-opacity="1"><g transform="translate(181.300547, 266.11882)"><g><path d="M 7.65625 -2.40625 C 7.65625 -2.4375 7.6875 -2.445312 7.75 -2.4375 C 7.820312 -2.4375 7.859375 -2.421875 7.859375 -2.390625 C 7.765625 -1.691406 7.71875 -0.972656 7.71875 -0.234375 C 7.71875 -0.148438 7.695312 -0.0859375 7.65625 -0.046875 C 7.613281 -0.015625 7.546875 0 7.453125 0 L 0.6875 0 C 0.664062 0 0.65625 -0.03125 0.65625 -0.09375 C 0.65625 -0.15625 0.664062 -0.1875 0.6875 -0.1875 C 1.082031 -0.1875 1.367188 -0.210938 1.546875 -0.265625 C 1.734375 -0.328125 1.859375 -0.429688 1.921875 -0.578125 C 1.984375 -0.734375 2.015625 -0.972656 2.015625 -1.296875 L 2.015625 -8.703125 C 2.015625 -9.023438 1.984375 -9.257812 1.921875 -9.40625 C 1.859375 -9.550781 1.734375 -9.65625 1.546875 -9.71875 C 1.367188 -9.78125 1.082031 -9.8125 0.6875 -9.8125 C 0.664062 -9.8125 0.65625 -9.84375 0.65625 -9.90625 C 0.65625 -9.96875 0.664062 -10 0.6875 -10 L 7.1875 -10 C 7.28125 -10 7.328125 -9.953125 7.328125 -9.859375 L 7.359375 -7.859375 C 7.359375 -7.828125 7.328125 -7.8125 7.265625 -7.8125 C 7.210938 -7.8125 7.1875 -7.828125 7.1875 -7.859375 C 7.125 -8.429688 6.925781 -8.867188 6.59375 -9.171875 C 6.257812 -9.484375 5.828125 -9.640625 5.296875 -9.640625 L 4.421875 -9.640625 C 3.910156 -9.640625 3.578125 -9.570312 3.421875 -9.4375 C 3.265625 -9.300781 3.1875 -9.035156 3.1875 -8.640625 L 3.1875 -5.375 L 5.03125 -5.375 C 5.5625 -5.375 5.945312 -5.460938 6.1875 -5.640625 C 6.425781 -5.828125 6.546875 -6.125 6.546875 -6.53125 C 6.546875 -6.550781 6.578125 -6.5625 6.640625 -6.5625 C 6.703125 -6.5625 6.734375 -6.550781 6.734375 -6.53125 L 6.71875 -5.203125 C 6.71875 -4.890625 6.722656 -4.65625 6.734375 -4.5 L 6.75 -3.703125 C 6.75 -3.671875 6.71875 -3.65625 6.65625 -3.65625 C 6.59375 -3.65625 6.5625 -3.671875 6.5625 -3.703125 C 6.5625 -4.171875 6.4375 -4.507812 6.1875 -4.71875 C 5.945312 -4.925781 5.546875 -5.03125 4.984375 -5.03125 L 3.1875 -5.03125 L 3.1875 -1.359375 C 3.1875 -1.078125 3.21875 -0.867188 3.28125 -0.734375 C 3.34375 -0.597656 3.453125 -0.5 3.609375 -0.4375 C 3.773438 -0.382812 4.023438 -0.359375 4.359375 -0.359375 L 5.484375 -0.359375 C 6.054688 -0.359375 6.523438 -0.535156 6.890625 -0.890625 C 7.265625 -1.242188 7.519531 -1.75 7.65625 -2.40625 Z M 7.65625 -2.40625 "/></g></g></g><g fill="#523e27" fill-opacity="1"><g transform="translate(189.938467, 266.11882)"><g/></g></g><g fill="#523e27" fill-opacity="1"><g transform="translate(193.681566, 266.11882)"><g><path d="M 3.109375 -9.703125 C 2.441406 -9.703125 1.929688 -9.519531 1.578125 -9.15625 C 1.222656 -8.800781 0.960938 -8.21875 0.796875 -7.40625 C 0.785156 -7.375 0.75 -7.359375 0.6875 -7.359375 C 0.632812 -7.367188 0.609375 -7.382812 0.609375 -7.40625 C 0.648438 -7.707031 0.695312 -8.1875 0.75 -8.84375 C 0.800781 -9.507812 0.828125 -10.015625 0.828125 -10.359375 C 0.828125 -10.410156 0.859375 -10.4375 0.921875 -10.4375 C 0.992188 -10.4375 1.03125 -10.410156 1.03125 -10.359375 C 1.03125 -10.117188 1.316406 -10 1.890625 -10 C 2.804688 -9.96875 3.878906 -9.953125 5.109375 -9.953125 C 5.734375 -9.953125 6.398438 -9.960938 7.109375 -9.984375 L 8.1875 -10 C 8.570312 -10 8.859375 -10.023438 9.046875 -10.078125 C 9.234375 -10.128906 9.351562 -10.238281 9.40625 -10.40625 C 9.414062 -10.445312 9.445312 -10.46875 9.5 -10.46875 C 9.550781 -10.46875 9.578125 -10.445312 9.578125 -10.40625 C 9.546875 -10.09375 9.515625 -9.613281 9.484375 -8.96875 C 9.453125 -8.320312 9.4375 -7.800781 9.4375 -7.40625 C 9.4375 -7.382812 9.40625 -7.375 9.34375 -7.375 C 9.289062 -7.375 9.257812 -7.382812 9.25 -7.40625 C 9.207031 -8.226562 9.015625 -8.816406 8.671875 -9.171875 C 8.335938 -9.523438 7.820312 -9.703125 7.125 -9.703125 C 6.695312 -9.703125 6.390625 -9.675781 6.203125 -9.625 C 6.015625 -9.582031 5.882812 -9.492188 5.8125 -9.359375 C 5.75 -9.222656 5.71875 -8.992188 5.71875 -8.671875 L 5.71875 -1.296875 C 5.71875 -0.960938 5.75 -0.722656 5.8125 -0.578125 C 5.882812 -0.429688 6.023438 -0.328125 6.234375 -0.265625 C 6.441406 -0.210938 6.773438 -0.1875 7.234375 -0.1875 C 7.253906 -0.1875 7.265625 -0.15625 7.265625 -0.09375 C 7.265625 -0.03125 7.253906 0 7.234375 0 C 6.867188 0 6.582031 -0.00390625 6.375 -0.015625 L 5.109375 -0.03125 L 3.890625 -0.015625 C 3.671875 -0.00390625 3.367188 0 2.984375 0 C 2.960938 0 2.953125 -0.03125 2.953125 -0.09375 C 2.953125 -0.15625 2.960938 -0.1875 2.984375 -0.1875 C 3.429688 -0.1875 3.757812 -0.210938 3.96875 -0.265625 C 4.1875 -0.328125 4.332031 -0.429688 4.40625 -0.578125 C 4.488281 -0.734375 4.53125 -0.972656 4.53125 -1.296875 L 4.53125 -8.703125 C 4.53125 -9.015625 4.492188 -9.234375 4.421875 -9.359375 C 4.347656 -9.492188 4.21875 -9.582031 4.03125 -9.625 C 3.851562 -9.675781 3.546875 -9.703125 3.109375 -9.703125 Z M 3.109375 -9.703125 "/></g></g></g><g fill="#523e27" fill-opacity="1"><g transform="translate(203.855123, 266.11882)"><g><path d="M 10.984375 -0.1875 C 11.023438 -0.1875 11.046875 -0.15625 11.046875 -0.09375 C 11.046875 -0.03125 11.023438 0 10.984375 0 L 8.796875 0 C 8.546875 0 8.0625 -0.429688 7.34375 -1.296875 C 6.632812 -2.171875 5.769531 -3.382812 4.75 -4.9375 C 4.457031 -4.882812 4.191406 -4.859375 3.953125 -4.859375 C 3.898438 -4.859375 3.648438 -4.875 3.203125 -4.90625 L 3.203125 -1.296875 C 3.203125 -0.960938 3.234375 -0.722656 3.296875 -0.578125 C 3.359375 -0.429688 3.476562 -0.328125 3.65625 -0.265625 C 3.84375 -0.210938 4.132812 -0.1875 4.53125 -0.1875 C 4.5625 -0.1875 4.578125 -0.15625 4.578125 -0.09375 C 4.578125 -0.03125 4.5625 0 4.53125 0 C 4.1875 0 3.925781 -0.00390625 3.75 -0.015625 L 2.609375 -0.03125 L 1.5 -0.015625 C 1.300781 -0.00390625 1.03125 0 0.6875 0 C 0.664062 0 0.65625 -0.03125 0.65625 -0.09375 C 0.65625 -0.15625 0.664062 -0.1875 0.6875 -0.1875 C 1.082031 -0.1875 1.367188 -0.210938 1.546875 -0.265625 C 1.734375 -0.328125 1.859375 -0.429688 1.921875 -0.578125 C 1.992188 -0.734375 2.03125 -0.972656 2.03125 -1.296875 L 2.03125 -8.703125 C 2.03125 -9.023438 2 -9.257812 1.9375 -9.40625 C 1.875 -9.550781 1.75 -9.65625 1.5625 -9.71875 C 1.382812 -9.78125 1.101562 -9.8125 0.71875 -9.8125 C 0.6875 -9.8125 0.671875 -9.84375 0.671875 -9.90625 C 0.671875 -9.96875 0.6875 -10 0.71875 -10 L 1.5 -9.984375 C 1.945312 -9.960938 2.316406 -9.953125 2.609375 -9.953125 C 2.828125 -9.953125 3.035156 -9.957031 3.234375 -9.96875 C 3.441406 -9.976562 3.625 -9.988281 3.78125 -10 C 4.175781 -10.03125 4.539062 -10.046875 4.875 -10.046875 C 5.726562 -10.046875 6.390625 -9.851562 6.859375 -9.46875 C 7.335938 -9.09375 7.578125 -8.585938 7.578125 -7.953125 C 7.578125 -7.378906 7.410156 -6.859375 7.078125 -6.390625 C 6.742188 -5.921875 6.300781 -5.550781 5.75 -5.28125 C 6.644531 -3.988281 7.390625 -2.976562 7.984375 -2.25 C 8.585938 -1.53125 9.125 -1.003906 9.59375 -0.671875 C 10.070312 -0.347656 10.535156 -0.1875 10.984375 -0.1875 Z M 3.203125 -5.296875 C 3.492188 -5.265625 3.804688 -5.25 4.140625 -5.25 C 4.941406 -5.25 5.515625 -5.425781 5.859375 -5.78125 C 6.203125 -6.132812 6.375 -6.691406 6.375 -7.453125 C 6.375 -8.296875 6.195312 -8.894531 5.84375 -9.25 C 5.488281 -9.613281 4.976562 -9.796875 4.3125 -9.796875 C 3.90625 -9.796875 3.617188 -9.71875 3.453125 -9.5625 C 3.285156 -9.40625 3.203125 -9.109375 3.203125 -8.671875 Z M 3.203125 -5.296875 "/></g></g></g><g fill="#523e27" fill-opacity="1"><g transform="translate(214.700516, 266.11882)"><g><path d="M 3.9375 -10.84375 C 3.894531 -10.84375 3.863281 -10.863281 3.84375 -10.90625 C 3.832031 -10.957031 3.84375 -11 3.875 -11.03125 C 4.207031 -11.207031 4.539062 -11.398438 4.875 -11.609375 C 5.207031 -11.816406 5.414062 -11.945312 5.5 -12 C 5.882812 -12.257812 6.175781 -12.445312 6.375 -12.5625 C 6.425781 -12.59375 6.5625 -12.570312 6.78125 -12.5 C 7.007812 -12.4375 7.207031 -12.351562 7.375 -12.25 C 7.539062 -12.15625 7.582031 -12.101562 7.5 -12.09375 C 6.238281 -11.769531 5.054688 -11.351562 3.953125 -10.84375 Z M 11.234375 -0.1875 C 11.273438 -0.1875 11.296875 -0.15625 11.296875 -0.09375 C 11.296875 -0.03125 11.273438 0 11.234375 0 C 11.023438 0 10.707031 -0.0078125 10.28125 -0.03125 C 9.851562 -0.0507812 9.539062 -0.0625 9.34375 -0.0625 C 9.09375 -0.0625 8.789062 -0.0507812 8.4375 -0.03125 C 8.09375 -0.0078125 7.820312 0 7.625 0 C 7.582031 0 7.5625 -0.03125 7.5625 -0.09375 C 7.5625 -0.15625 7.582031 -0.1875 7.625 -0.1875 C 8.007812 -0.1875 8.285156 -0.222656 8.453125 -0.296875 C 8.617188 -0.367188 8.703125 -0.492188 8.703125 -0.671875 C 8.703125 -0.828125 8.628906 -1.066406 8.484375 -1.390625 L 7.109375 -4.265625 L 3.28125 -4.265625 L 2.34375 -2.078125 C 2.195312 -1.753906 2.125 -1.460938 2.125 -1.203125 C 2.125 -0.523438 2.644531 -0.1875 3.6875 -0.1875 C 3.738281 -0.1875 3.765625 -0.15625 3.765625 -0.09375 C 3.765625 -0.03125 3.738281 0 3.6875 0 C 3.488281 0 3.207031 -0.0078125 2.84375 -0.03125 C 2.4375 -0.0507812 2.085938 -0.0625 1.796875 -0.0625 C 1.523438 -0.0625 1.195312 -0.0507812 0.8125 -0.03125 C 0.5 -0.0078125 0.226562 0 0 0 C -0.0507812 0 -0.078125 -0.03125 -0.078125 -0.09375 C -0.078125 -0.15625 -0.0507812 -0.1875 0 -0.1875 C 0.300781 -0.1875 0.554688 -0.242188 0.765625 -0.359375 C 0.972656 -0.472656 1.171875 -0.671875 1.359375 -0.953125 C 1.546875 -1.242188 1.757812 -1.664062 2 -2.21875 L 5.375 -10.125 C 5.394531 -10.15625 5.4375 -10.171875 5.5 -10.171875 C 5.5625 -10.171875 5.597656 -10.15625 5.609375 -10.125 L 9.421875 -2.1875 C 9.785156 -1.414062 10.09375 -0.890625 10.34375 -0.609375 C 10.601562 -0.328125 10.898438 -0.1875 11.234375 -0.1875 Z M 3.421875 -4.609375 L 6.9375 -4.609375 L 5.09375 -8.484375 Z M 3.421875 -4.609375 "/></g></g></g><g fill="#523e27" fill-opacity="1"><g transform="translate(225.961811, 266.11882)"><g><path d="M 7.359375 -7.859375 C 7.359375 -7.828125 7.328125 -7.8125 7.265625 -7.8125 C 7.210938 -7.8125 7.1875 -7.828125 7.1875 -7.859375 C 7.125 -8.429688 6.925781 -8.867188 6.59375 -9.171875 C 6.257812 -9.484375 5.828125 -9.640625 5.296875 -9.640625 L 4.421875 -9.640625 C 3.941406 -9.640625 3.613281 -9.570312 3.4375 -9.4375 C 3.269531 -9.3125 3.1875 -9.0625 3.1875 -8.6875 L 3.1875 -5.1875 L 4.71875 -5.1875 C 5.289062 -5.1875 5.707031 -5.28125 5.96875 -5.46875 C 6.226562 -5.65625 6.359375 -5.945312 6.359375 -6.34375 C 6.359375 -6.363281 6.390625 -6.375 6.453125 -6.375 C 6.515625 -6.375 6.546875 -6.363281 6.546875 -6.34375 L 6.53125 -5.015625 C 6.53125 -4.703125 6.535156 -4.460938 6.546875 -4.296875 L 6.5625 -3.5 C 6.5625 -3.476562 6.53125 -3.46875 6.46875 -3.46875 C 6.40625 -3.46875 6.375 -3.476562 6.375 -3.5 C 6.375 -3.96875 6.238281 -4.304688 5.96875 -4.515625 C 5.695312 -4.722656 5.265625 -4.828125 4.671875 -4.828125 L 3.1875 -4.828125 L 3.1875 -1.359375 C 3.1875 -1.015625 3.226562 -0.765625 3.3125 -0.609375 C 3.40625 -0.460938 3.582031 -0.351562 3.84375 -0.28125 C 4.101562 -0.21875 4.519531 -0.1875 5.09375 -0.1875 C 5.113281 -0.1875 5.125 -0.15625 5.125 -0.09375 C 5.125 -0.03125 5.113281 0 5.09375 0 C 4.65625 0 4.3125 -0.00390625 4.0625 -0.015625 L 2.578125 -0.03125 L 1.484375 -0.015625 C 1.285156 -0.00390625 1.007812 0 0.65625 0 C 0.625 0 0.609375 -0.03125 0.609375 -0.09375 C 0.609375 -0.15625 0.625 -0.1875 0.65625 -0.1875 C 1.050781 -0.1875 1.34375 -0.210938 1.53125 -0.265625 C 1.71875 -0.328125 1.84375 -0.429688 1.90625 -0.578125 C 1.976562 -0.734375 2.015625 -0.972656 2.015625 -1.296875 L 2.015625 -8.703125 C 2.015625 -9.023438 1.984375 -9.257812 1.921875 -9.40625 C 1.859375 -9.550781 1.734375 -9.65625 1.546875 -9.71875 C 1.367188 -9.78125 1.082031 -9.8125 0.6875 -9.8125 C 0.664062 -9.8125 0.65625 -9.84375 0.65625 -9.90625 C 0.65625 -9.96875 0.664062 -10 0.6875 -10 L 7.1875 -10 C 7.28125 -10 7.328125 -9.953125 7.328125 -9.859375 Z M 7.359375 -7.859375 "/></g></g></g><g fill="#523e27" fill-opacity="1"><g transform="translate(234.151843, 266.11882)"><g><path d="M 7.65625 -2.40625 C 7.65625 -2.4375 7.6875 -2.445312 7.75 -2.4375 C 7.820312 -2.4375 7.859375 -2.421875 7.859375 -2.390625 C 7.765625 -1.691406 7.71875 -0.972656 7.71875 -0.234375 C 7.71875 -0.148438 7.695312 -0.0859375 7.65625 -0.046875 C 7.613281 -0.015625 7.546875 0 7.453125 0 L 0.6875 0 C 0.664062 0 0.65625 -0.03125 0.65625 -0.09375 C 0.65625 -0.15625 0.664062 -0.1875 0.6875 -0.1875 C 1.082031 -0.1875 1.367188 -0.210938 1.546875 -0.265625 C 1.734375 -0.328125 1.859375 -0.429688 1.921875 -0.578125 C 1.984375 -0.734375 2.015625 -0.972656 2.015625 -1.296875 L 2.015625 -8.703125 C 2.015625 -9.023438 1.984375 -9.257812 1.921875 -9.40625 C 1.859375 -9.550781 1.734375 -9.65625 1.546875 -9.71875 C 1.367188 -9.78125 1.082031 -9.8125 0.6875 -9.8125 C 0.664062 -9.8125 0.65625 -9.84375 0.65625 -9.90625 C 0.65625 -9.96875 0.664062 -10 0.6875 -10 L 7.1875 -10 C 7.28125 -10 7.328125 -9.953125 7.328125 -9.859375 L 7.359375 -7.859375 C 7.359375 -7.828125 7.328125 -7.8125 7.265625 -7.8125 C 7.210938 -7.8125 7.1875 -7.828125 7.1875 -7.859375 C 7.125 -8.429688 6.925781 -8.867188 6.59375 -9.171875 C 6.257812 -9.484375 5.828125 -9.640625 5.296875 -9.640625 L 4.421875 -9.640625 C 3.910156 -9.640625 3.578125 -9.570312 3.421875 -9.4375 C 3.265625 -9.300781 3.1875 -9.035156 3.1875 -8.640625 L 3.1875 -5.375 L 5.03125 -5.375 C 5.5625 -5.375 5.945312 -5.460938 6.1875 -5.640625 C 6.425781 -5.828125 6.546875 -6.125 6.546875 -6.53125 C 6.546875 -6.550781 6.578125 -6.5625 6.640625 -6.5625 C 6.703125 -6.5625 6.734375 -6.550781 6.734375 -6.53125 L 6.71875 -5.203125 C 6.71875 -4.890625 6.722656 -4.65625 6.734375 -4.5 L 6.75 -3.703125 C 6.75 -3.671875 6.71875 -3.65625 6.65625 -3.65625 C 6.59375 -3.65625 6.5625 -3.671875 6.5625 -3.703125 C 6.5625 -4.171875 6.4375 -4.507812 6.1875 -4.71875 C 5.945312 -4.925781 5.546875 -5.03125 4.984375 -5.03125 L 3.1875 -5.03125 L 3.1875 -1.359375 C 3.1875 -1.078125 3.21875 -0.867188 3.28125 -0.734375 C 3.34375 -0.597656 3.453125 -0.5 3.609375 -0.4375 C 3.773438 -0.382812 4.023438 -0.359375 4.359375 -0.359375 L 5.484375 -0.359375 C 6.054688 -0.359375 6.523438 -0.535156 6.890625 -0.890625 C 7.265625 -1.242188 7.519531 -1.75 7.65625 -2.40625 Z M 7.65625 -2.40625 "/></g></g></g><g fill="#523e27" fill-opacity="1"><g transform="translate(242.789763, 266.11882)"><g><path d="M 6.578125 0.1875 C 5.390625 0.1875 4.359375 -0.046875 3.484375 -0.515625 C 2.609375 -0.984375 1.9375 -1.613281 1.46875 -2.40625 C 1.007812 -3.195312 0.78125 -4.078125 0.78125 -5.046875 C 0.78125 -6.066406 1.046875 -6.960938 1.578125 -7.734375 C 2.109375 -8.515625 2.832031 -9.113281 3.75 -9.53125 C 4.664062 -9.957031 5.691406 -10.171875 6.828125 -10.171875 C 7.398438 -10.171875 7.929688 -10.117188 8.421875 -10.015625 C 8.921875 -9.921875 9.328125 -9.773438 9.640625 -9.578125 C 9.734375 -9.535156 9.785156 -9.5 9.796875 -9.46875 C 9.816406 -9.445312 9.832031 -9.367188 9.84375 -9.234375 L 10.046875 -7.296875 C 10.046875 -7.265625 10.015625 -7.242188 9.953125 -7.234375 C 9.898438 -7.222656 9.867188 -7.234375 9.859375 -7.265625 C 9.617188 -8.046875 9.222656 -8.679688 8.671875 -9.171875 C 8.117188 -9.660156 7.382812 -9.90625 6.46875 -9.90625 C 5.65625 -9.90625 4.921875 -9.71875 4.265625 -9.34375 C 3.609375 -8.96875 3.085938 -8.425781 2.703125 -7.71875 C 2.328125 -7.019531 2.140625 -6.207031 2.140625 -5.28125 C 2.140625 -4.351562 2.328125 -3.488281 2.703125 -2.6875 C 3.078125 -1.894531 3.628906 -1.253906 4.359375 -0.765625 C 5.085938 -0.285156 5.960938 -0.046875 6.984375 -0.046875 C 7.722656 -0.046875 8.238281 -0.1875 8.53125 -0.46875 C 8.820312 -0.75 8.96875 -1.257812 8.96875 -2 C 8.96875 -2.550781 8.929688 -2.9375 8.859375 -3.15625 C 8.796875 -3.375 8.648438 -3.519531 8.421875 -3.59375 C 8.191406 -3.675781 7.785156 -3.71875 7.203125 -3.71875 C 7.140625 -3.71875 7.109375 -3.757812 7.109375 -3.84375 C 7.109375 -3.875 7.113281 -3.898438 7.125 -3.921875 C 7.144531 -3.953125 7.164062 -3.96875 7.1875 -3.96875 C 8.039062 -3.914062 8.726562 -3.890625 9.25 -3.890625 C 9.75 -3.890625 10.28125 -3.90625 10.84375 -3.9375 C 10.882812 -3.9375 10.90625 -3.898438 10.90625 -3.828125 C 10.914062 -3.753906 10.894531 -3.71875 10.84375 -3.71875 C 10.59375 -3.726562 10.414062 -3.691406 10.3125 -3.609375 C 10.207031 -3.523438 10.140625 -3.359375 10.109375 -3.109375 C 10.078125 -2.867188 10.0625 -2.445312 10.0625 -1.84375 C 10.0625 -1.363281 10.078125 -1.019531 10.109375 -0.8125 C 10.148438 -0.613281 10.171875 -0.488281 10.171875 -0.4375 C 10.171875 -0.375 10.160156 -0.328125 10.140625 -0.296875 C 10.117188 -0.273438 10.070312 -0.253906 10 -0.234375 C 8.675781 0.046875 7.535156 0.1875 6.578125 0.1875 Z M 6.578125 0.1875 "/></g></g></g><g fill="#523e27" fill-opacity="1"><g transform="translate(254.259008, 266.11882)"><g><path d="M 5.859375 0.1875 C 4.867188 0.1875 3.984375 -0.0390625 3.203125 -0.5 C 2.429688 -0.96875 1.832031 -1.597656 1.40625 -2.390625 C 0.988281 -3.179688 0.78125 -4.046875 0.78125 -4.984375 C 0.78125 -6.085938 1.054688 -7.03125 1.609375 -7.8125 C 2.171875 -8.59375 2.882812 -9.179688 3.75 -9.578125 C 4.625 -9.972656 5.515625 -10.171875 6.421875 -10.171875 C 7.429688 -10.171875 8.316406 -9.929688 9.078125 -9.453125 C 9.847656 -8.984375 10.4375 -8.359375 10.84375 -7.578125 C 11.257812 -6.804688 11.46875 -5.984375 11.46875 -5.109375 C 11.46875 -4.128906 11.210938 -3.234375 10.703125 -2.421875 C 10.191406 -1.617188 9.503906 -0.984375 8.640625 -0.515625 C 7.785156 -0.046875 6.859375 0.1875 5.859375 0.1875 Z M 6.421875 -0.15625 C 7.117188 -0.15625 7.75 -0.332031 8.3125 -0.6875 C 8.875 -1.039062 9.316406 -1.554688 9.640625 -2.234375 C 9.960938 -2.910156 10.125 -3.71875 10.125 -4.65625 C 10.125 -5.644531 9.945312 -6.53125 9.59375 -7.3125 C 9.238281 -8.09375 8.726562 -8.703125 8.0625 -9.140625 C 7.40625 -9.578125 6.640625 -9.796875 5.765625 -9.796875 C 4.617188 -9.796875 3.722656 -9.414062 3.078125 -8.65625 C 2.441406 -7.90625 2.125 -6.867188 2.125 -5.546875 C 2.125 -4.546875 2.304688 -3.632812 2.671875 -2.8125 C 3.035156 -1.988281 3.539062 -1.335938 4.1875 -0.859375 C 4.84375 -0.390625 5.585938 -0.15625 6.421875 -0.15625 Z M 6.421875 -0.15625 "/></g></g></g><g fill="#523e27" fill-opacity="1"><g transform="translate(266.508572, 266.11882)"><g/></g></g></svg>