<svg xmlns="http://www.w3.org/2000/svg" xmlns:xlink="http://www.w3.org/1999/xlink" width="500" zoomAndPan="magnify" viewBox="0 0 375 112.499997" height="150" preserveAspectRatio="xMidYMid meet" version="1.0"><defs><g/><clipPath id="70aac46150"><path d="M 0.828125 0 L 374.167969 0 L 374.167969 112.003906 L 0.828125 112.003906 Z M 0.828125 0 " clip-rule="nonzero"/></clipPath><clipPath id="b8406536d9"><path d="M 88.4375 43.410156 L 286.308594 43.410156 L 286.308594 66.554688 L 88.4375 66.554688 Z M 88.4375 43.410156 " clip-rule="nonzero"/></clipPath></defs><g clip-path="url(#70aac46150)"><path fill="#ffffff" d="M 0.828125 0 L 374.171875 0 L 374.171875 119.46875 L 0.828125 119.46875 Z M 0.828125 0 " fill-opacity="1" fill-rule="nonzero"/><path fill="#ffffff" d="M 0.828125 0 L 374.171875 0 L 374.171875 112.003906 L 0.828125 112.003906 Z M 0.828125 0 " fill-opacity="1" fill-rule="nonzero"/><path fill="#66ddb0" d="M 0.828125 0 L 374.171875 0 L 374.171875 112.003906 L 0.828125 112.003906 Z M 0.828125 0 " fill-opacity="1" fill-rule="nonzero"/></g><g fill="#523e27" fill-opacity="1"><g transform="translate(100.473181, 92.92605)"><g><path d="M 25.703125 -80.28125 C 20.222656 -80.28125 16.003906 -78.800781 13.046875 -75.84375 C 10.085938 -72.882812 7.945312 -68.046875 6.625 -61.328125 C 6.53125 -61.066406 6.238281 -60.957031 5.75 -61 C 5.269531 -61.039062 5.03125 -61.148438 5.03125 -61.328125 C 5.382812 -63.804688 5.78125 -67.78125 6.21875 -73.25 C 6.664062 -78.726562 6.890625 -82.878906 6.890625 -85.703125 C 6.890625 -86.148438 7.15625 -86.375 7.6875 -86.375 C 8.21875 -86.375 8.484375 -86.148438 8.484375 -85.703125 C 8.484375 -83.765625 10.863281 -82.796875 15.625 -82.796875 C 23.226562 -82.523438 32.101562 -82.390625 42.25 -82.390625 C 47.46875 -82.390625 52.988281 -82.476562 58.8125 -82.65625 L 67.828125 -82.796875 C 71.003906 -82.796875 73.363281 -83.015625 74.90625 -83.453125 C 76.457031 -83.898438 77.453125 -84.785156 77.890625 -86.109375 C 77.984375 -86.460938 78.25 -86.640625 78.6875 -86.640625 C 79.125 -86.640625 79.34375 -86.460938 79.34375 -86.109375 C 79.082031 -83.546875 78.816406 -79.59375 78.546875 -74.25 C 78.285156 -68.90625 78.15625 -64.597656 78.15625 -61.328125 C 78.15625 -61.148438 77.910156 -61.0625 77.421875 -61.0625 C 76.941406 -61.0625 76.65625 -61.148438 76.5625 -61.328125 C 76.207031 -68.128906 74.640625 -72.988281 71.859375 -75.90625 C 69.078125 -78.820312 64.773438 -80.28125 58.953125 -80.28125 C 55.421875 -80.28125 52.878906 -80.101562 51.328125 -79.75 C 49.785156 -79.394531 48.726562 -78.640625 48.15625 -77.484375 C 47.582031 -76.335938 47.296875 -74.441406 47.296875 -71.796875 L 47.296875 -10.734375 C 47.296875 -7.992188 47.582031 -6.003906 48.15625 -4.765625 C 48.726562 -3.535156 49.875 -2.695312 51.59375 -2.25 C 53.320312 -1.8125 56.082031 -1.59375 59.875 -1.59375 C 60.050781 -1.59375 60.140625 -1.328125 60.140625 -0.796875 C 60.140625 -0.265625 60.050781 0 59.875 0 C 56.875 0 54.488281 -0.0390625 52.71875 -0.125 L 42.25 -0.265625 L 32.1875 -0.125 C 30.425781 -0.0390625 27.953125 0 24.765625 0 C 24.585938 0 24.5 -0.265625 24.5 -0.796875 C 24.5 -1.328125 24.585938 -1.59375 24.765625 -1.59375 C 28.472656 -1.59375 31.210938 -1.8125 32.984375 -2.25 C 34.753906 -2.695312 35.945312 -3.554688 36.5625 -4.828125 C 37.175781 -6.109375 37.484375 -8.078125 37.484375 -10.734375 L 37.484375 -72.0625 C 37.484375 -74.625 37.195312 -76.457031 36.625 -77.5625 C 36.050781 -78.664062 34.988281 -79.394531 33.4375 -79.75 C 31.894531 -80.101562 29.316406 -80.28125 25.703125 -80.28125 Z M 25.703125 -80.28125 "/></g></g></g><g fill="#523e27" fill-opacity="1"><g transform="translate(184.721166, 92.92605)"><g><path d="M 91 -1.59375 C 91.269531 -1.59375 91.40625 -1.328125 91.40625 -0.796875 C 91.40625 -0.265625 91.269531 0 91 0 L 72.859375 0 C 70.734375 0 66.734375 -3.597656 60.859375 -10.796875 C 54.992188 -17.992188 47.820312 -28.039062 39.34375 -40.9375 C 36.957031 -40.488281 34.75 -40.265625 32.71875 -40.265625 C 32.28125 -40.265625 30.207031 -40.398438 26.5 -40.671875 L 26.5 -10.734375 C 26.5 -7.992188 26.757812 -6.003906 27.28125 -4.765625 C 27.8125 -3.535156 28.828125 -2.695312 30.328125 -2.25 C 31.835938 -1.8125 34.222656 -1.59375 37.484375 -1.59375 C 37.753906 -1.59375 37.890625 -1.328125 37.890625 -0.796875 C 37.890625 -0.265625 37.753906 0 37.484375 0 C 34.660156 0 32.5 -0.0390625 31 -0.125 L 21.59375 -0.265625 L 12.453125 -0.125 C 10.773438 -0.0390625 8.523438 0 5.703125 0 C 5.523438 0 5.4375 -0.265625 5.4375 -0.796875 C 5.4375 -1.328125 5.523438 -1.59375 5.703125 -1.59375 C 8.960938 -1.59375 11.34375 -1.8125 12.84375 -2.25 C 14.34375 -2.695312 15.378906 -3.554688 15.953125 -4.828125 C 16.535156 -6.109375 16.828125 -8.078125 16.828125 -10.734375 L 16.828125 -72.0625 C 16.828125 -74.707031 16.5625 -76.648438 16.03125 -77.890625 C 15.5 -79.128906 14.484375 -79.988281 12.984375 -80.46875 C 11.484375 -80.957031 9.144531 -81.203125 5.96875 -81.203125 C 5.695312 -81.203125 5.5625 -81.46875 5.5625 -82 C 5.5625 -82.53125 5.695312 -82.796875 5.96875 -82.796875 L 12.453125 -82.65625 C 16.160156 -82.476562 19.207031 -82.390625 21.59375 -82.390625 C 23.445312 -82.390625 25.210938 -82.429688 26.890625 -82.515625 C 28.566406 -82.609375 30.023438 -82.703125 31.265625 -82.796875 C 34.523438 -83.054688 37.570312 -83.1875 40.40625 -83.1875 C 47.46875 -83.1875 52.960938 -81.617188 56.890625 -78.484375 C 60.828125 -75.347656 62.796875 -71.132812 62.796875 -65.84375 C 62.796875 -61.070312 61.398438 -56.742188 58.609375 -52.859375 C 55.828125 -48.972656 52.144531 -45.925781 47.5625 -43.71875 C 54.976562 -33.03125 61.179688 -24.679688 66.171875 -18.671875 C 71.160156 -12.671875 75.617188 -8.320312 79.546875 -5.625 C 83.472656 -2.9375 87.289062 -1.59375 91 -1.59375 Z M 26.5 -43.84375 C 28.96875 -43.582031 31.570312 -43.453125 34.3125 -43.453125 C 40.9375 -43.453125 45.660156 -44.929688 48.484375 -47.890625 C 51.304688 -50.847656 52.71875 -55.460938 52.71875 -61.734375 C 52.71875 -68.710938 51.257812 -73.679688 48.34375 -76.640625 C 45.4375 -79.597656 41.242188 -81.078125 35.765625 -81.078125 C 32.316406 -81.078125 29.910156 -80.4375 28.546875 -79.15625 C 27.179688 -77.875 26.5 -75.421875 26.5 -71.796875 Z M 26.5 -43.84375 "/></g></g></g><g clip-path="url(#b8406536d9)"><path fill="#e8cfc1" d="M 88.449219 43.410156 L 286.296875 43.410156 L 286.296875 66.554688 L 88.449219 66.554688 L 88.449219 43.410156 " fill-opacity="1" fill-rule="nonzero"/></g><g fill="#523e27" fill-opacity="1"><g transform="translate(151.153392, 59.899331)"><g><path d="M 8.023438 0.570312 C 9.375 0.046875 10.429688 -2.300781 11.121094 -4.402344 C 11.222656 -4.734375 11.449219 -5.019531 11.75 -5.183594 C 12.652344 -5.695312 13.539062 -6.160156 14.304688 -6.535156 C 14.5 -6.625 14.589844 -6.867188 14.484375 -7.0625 C 14.394531 -7.257812 14.15625 -7.347656 13.960938 -7.242188 C 13.765625 -7.152344 13.164062 -6.867188 12.382812 -6.445312 C 12.246094 -6.371094 12.082031 -6.386719 11.960938 -6.476562 C 11.839844 -6.566406 11.796875 -6.714844 11.824219 -6.867188 C 11.960938 -7.394531 12.035156 -7.769531 12.066406 -7.917969 C 12.097656 -8.070312 12.035156 -8.234375 11.886719 -8.324219 C 11.75 -8.414062 11.570312 -8.414062 11.433594 -8.308594 C 11.390625 -8.265625 5.769531 -4.058594 2.613281 -5.832031 C 1.578125 -6.417969 1.472656 -7.617188 1.5625 -8.519531 C 1.863281 -11.644531 4.945312 -15.898438 9.015625 -17.21875 C 10.789062 -17.804688 12.003906 -17.492188 12.425781 -16.347656 C 13.148438 -14.484375 11.570312 -10.625 7.484375 -8.851562 C 7.273438 -8.761719 7.183594 -8.519531 7.273438 -8.324219 C 7.363281 -8.128906 7.589844 -8.039062 7.796875 -8.128906 C 12.019531 -9.960938 14.125 -14.140625 13.179688 -16.632812 C 12.578125 -18.179688 10.9375 -18.675781 8.773438 -17.972656 C 4.402344 -16.542969 1.113281 -11.976562 0.765625 -8.59375 C 0.617188 -6.988281 1.128906 -5.769531 2.222656 -5.152344 C 4.75 -3.726562 8.382812 -5.453125 10.414062 -6.671875 C 10.519531 -6.746094 10.652344 -6.730469 10.757812 -6.65625 C 10.863281 -6.566406 10.910156 -6.429688 10.863281 -6.3125 L 10.683594 -5.664062 C 10.636719 -5.53125 10.546875 -5.410156 10.429688 -5.335938 C 8.234375 -4.011719 5.84375 -2.269531 5.738281 -0.902344 C 5.695312 -0.390625 5.949219 0.0898438 6.371094 0.34375 C 6.6875 0.570312 7.046875 0.691406 7.421875 0.691406 C 7.617188 0.691406 7.828125 0.644531 8.023438 0.570312 Z M 9.828125 -3.199219 C 9.242188 -1.726562 8.519531 -0.464844 7.738281 -0.148438 C 7.421875 -0.046875 7.078125 -0.0898438 6.835938 -0.300781 C 6.535156 -0.511719 6.507812 -0.691406 6.519531 -0.828125 C 6.582031 -1.5625 7.753906 -2.597656 9.269531 -3.652344 C 9.40625 -3.742188 9.585938 -3.742188 9.722656 -3.636719 C 9.855469 -3.53125 9.902344 -3.351562 9.828125 -3.199219 Z M 9.828125 -3.199219 "/></g></g></g><g fill="#523e27" fill-opacity="1"><g transform="translate(164.178055, 59.899331)"><g><path d="M 12.605469 -3.863281 C 12.53125 -3.9375 12.441406 -3.996094 12.335938 -3.996094 C 12.230469 -4.011719 12.125 -3.980469 12.050781 -3.921875 C 11.992188 -3.875 6.207031 0.722656 1.382812 -1.261719 C 0.40625 -1.667969 0.359375 -2.195312 0.390625 -2.480469 C 0.390625 -2.523438 0.40625 -2.570312 0.449219 -2.597656 C 0.480469 -2.628906 0.539062 -2.628906 0.585938 -2.613281 C 1.5625 -2.554688 2.539062 -2.808594 3.382812 -3.335938 C 4.101562 -3.800781 4.222656 -4.3125 4.175781 -4.644531 C 4.148438 -5.183594 3.710938 -5.621094 3.15625 -5.636719 C 1.96875 -5.695312 -0.015625 -4.28125 -0.34375 -2.78125 C -0.480469 -2.222656 -0.464844 -1.171875 1.082031 -0.539062 C 2.027344 -0.148438 3.019531 0.03125 4.027344 0.03125 C 8.339844 0.03125 12.335938 -3.140625 12.546875 -3.304688 C 12.621094 -3.367188 12.683594 -3.472656 12.683594 -3.5625 C 12.695312 -3.667969 12.667969 -3.773438 12.605469 -3.863281 Z M 0.929688 -3.53125 C 1.519531 -4.34375 2.496094 -4.882812 3.109375 -4.839844 C 3.277344 -4.839844 3.367188 -4.777344 3.394531 -4.554688 C 3.410156 -4.402344 3.246094 -4.191406 2.945312 -3.996094 C 2.328125 -3.589844 0.480469 -2.929688 0.929688 -3.53125 Z M 0.929688 -3.53125 "/></g></g></g><g fill="#523e27" fill-opacity="1"><g transform="translate(176.211222, 59.899331)"><g><path d="M 10.308594 -4.164062 C 10.234375 -4.238281 10.144531 -4.265625 10.039062 -4.265625 C 9.933594 -4.265625 9.828125 -4.238281 9.75 -4.164062 C 8.308594 -2.792969 6.535156 -1.832031 4.597656 -1.367188 C 4.523438 -1.335938 4.433594 -1.367188 4.386719 -1.425781 C 4.34375 -1.503906 4.328125 -1.578125 4.371094 -1.652344 C 4.644531 -2.179688 4.582031 -2.808594 4.238281 -3.289062 C 4.027344 -3.578125 3.757812 -3.816406 3.441406 -3.996094 C 3.019531 -4.28125 2.554688 -4.613281 2.539062 -4.957031 C 2.554688 -5.152344 2.628906 -5.335938 2.765625 -5.484375 L 3.578125 -6.25 C 3.726562 -6.402344 3.742188 -6.640625 3.605469 -6.792969 C 3.472656 -6.957031 3.246094 -6.988281 3.066406 -6.851562 C 2.75 -6.613281 2.449219 -6.339844 2.195312 -6.027344 L -0.121094 -3.863281 C -0.226562 -3.773438 -0.269531 -3.621094 -0.242188 -3.484375 C -0.210938 -3.335938 -0.105469 -3.230469 0.03125 -3.183594 C 0.164062 -3.15625 0.316406 -3.183594 0.421875 -3.289062 L 1.5625 -4.359375 C 1.621094 -4.417969 1.699219 -4.433594 1.773438 -4.433594 C 1.847656 -4.417969 1.910156 -4.371094 1.9375 -4.3125 C 2.222656 -3.921875 2.585938 -3.589844 2.988281 -3.351562 C 3.214844 -3.214844 3.410156 -3.066406 3.578125 -2.871094 C 3.726562 -2.703125 3.800781 -2.480469 3.757812 -2.253906 C 3.710938 -2.027344 3.578125 -1.832031 3.382812 -1.726562 C 2.417969 -1.1875 1.203125 -1.441406 0.539062 -2.328125 C 0.4375 -2.496094 0.195312 -2.554688 0.015625 -2.433594 C -0.164062 -2.328125 -0.226562 -2.105469 -0.121094 -1.910156 C 0.375 -1.050781 1.261719 -0.496094 2.253906 -0.421875 C 2.507812 -0.375 2.75 -0.359375 3.003906 -0.359375 C 5.542969 -0.359375 8.671875 -1.953125 10.308594 -3.605469 C 10.457031 -3.757812 10.457031 -4.011719 10.308594 -4.164062 Z M 10.308594 -4.164062 "/></g></g></g><g fill="#523e27" fill-opacity="1"><g transform="translate(185.915873, 59.899331)"><g><path d="M 10.308594 -4.085938 C 10.15625 -4.238281 9.902344 -4.238281 9.75 -4.070312 C 9.722656 -4.042969 5.648438 0.0585938 2.945312 -0.960938 C 1.742188 -1.425781 1.230469 -2.824219 1.035156 -4.207031 C 1.308594 -4.867188 1.757812 -5.964844 2.179688 -7.199219 C 2.222656 -7.347656 2.269531 -7.363281 2.449219 -7.378906 C 4.476562 -7.527344 6.492188 -7.601562 7.679688 -7.601562 C 7.902344 -7.601562 8.070312 -7.785156 8.070312 -7.992188 C 8.070312 -8.21875 7.902344 -8.382812 7.679688 -8.382812 C 6.535156 -8.382812 4.65625 -8.292969 2.734375 -8.1875 C 2.660156 -8.175781 2.523438 -8.21875 2.628906 -8.488281 C 3.351562 -10.546875 3.863281 -12.636719 3.546875 -13.269531 C 3.230469 -13.898438 2.808594 -13.914062 2.597656 -13.867188 C 1.488281 -13.660156 0.675781 -10.773438 0.316406 -8.414062 C 0.285156 -8.203125 0.179688 -8.023438 -0.015625 -8.007812 C -2.375 -7.828125 -4.3125 -7.691406 -4.34375 -7.691406 C -4.566406 -7.679688 -4.734375 -7.496094 -4.71875 -7.273438 C -4.71875 -7.0625 -4.539062 -6.882812 -4.3125 -6.898438 L -4.28125 -6.898438 C -4.238281 -6.898438 -2.417969 -7.03125 -0.148438 -7.199219 C -0.0742188 -7.210938 0 -7.199219 0.0585938 -7.136719 C 0.121094 -7.09375 0.164062 -7.015625 0.164062 -6.941406 C -0.0585938 -3.367188 0.839844 -0.917969 2.660156 -0.226562 C 3.050781 -0.0898438 3.457031 -0.015625 3.875 -0.015625 C 6.851562 -0.015625 10.15625 -3.367188 10.324219 -3.515625 C 10.398438 -3.589844 10.429688 -3.695312 10.429688 -3.800781 C 10.429688 -3.90625 10.382812 -4.011719 10.308594 -4.085938 Z M 1.113281 -8.445312 C 1.457031 -10.730469 2.148438 -12.53125 2.554688 -12.996094 C 2.597656 -13.027344 2.660156 -13.042969 2.71875 -13.027344 C 2.765625 -13.011719 2.808594 -12.984375 2.839844 -12.921875 C 3.019531 -12.53125 2.507812 -10.625 1.742188 -8.355469 C 1.714844 -8.21875 1.609375 -8.113281 1.457031 -8.097656 C 1.382812 -8.085938 1.308594 -8.085938 1.21875 -8.085938 C 1.066406 -8.085938 1.097656 -8.324219 1.113281 -8.429688 Z M 0.929688 -6.085938 C 0.78125 -6.085938 0.839844 -7.136719 0.976562 -7.289062 C 1.097656 -7.363281 1.246094 -7.378906 1.367188 -7.300781 C 1.503906 -7.183594 1.097656 -6.085938 0.929688 -6.085938 Z M 0.929688 -6.085938 "/></g></g></g><g fill="#523e27" fill-opacity="1"><g transform="translate(195.515365, 59.899331)"><g><path d="M 12.800781 -3.382812 C 12.652344 -3.546875 12.410156 -3.5625 12.246094 -3.410156 C 12.203125 -3.367188 7.738281 0.660156 4.957031 -1.171875 C 3.875 -1.894531 3.605469 -3.636719 3.605469 -3.652344 C 3.578125 -3.832031 3.441406 -3.96875 3.261719 -3.996094 C 3.09375 -4.011719 2.929688 -3.921875 2.855469 -3.773438 C 2.132812 -2.207031 1.007812 -0.464844 0.539062 -0.449219 C 0.511719 -0.449219 0.449219 -0.511719 0.40625 -0.617188 C 0.226562 -0.960938 0.285156 -1.519531 0.554688 -2.117188 C 0.960938 -3.003906 1.921875 -4.085938 3.425781 -4.449219 C 3.636719 -4.492188 3.773438 -4.703125 3.710938 -4.914062 C 3.667969 -5.140625 3.457031 -5.257812 3.246094 -5.214844 C 1.472656 -4.777344 0.316406 -3.5 -0.164062 -2.433594 C -0.539062 -1.621094 -0.585938 -0.828125 -0.300781 -0.253906 C -0.046875 0.226562 0.285156 0.332031 0.539062 0.332031 C 0.539062 0.332031 0.554688 0.332031 0.554688 0.332031 C 1.230469 0.316406 1.96875 -0.601562 2.570312 -1.546875 C 2.792969 -1.910156 3.320312 -1.921875 3.546875 -1.5625 C 3.785156 -1.171875 4.117188 -0.796875 4.523438 -0.527344 C 7.796875 1.652344 12.578125 -2.644531 12.773438 -2.824219 C 12.9375 -2.976562 12.953125 -3.230469 12.800781 -3.382812 Z M 0.046875 -6.65625 C 0.269531 -7.167969 0.660156 -7.558594 1.113281 -7.707031 C 1.441406 -7.828125 1.773438 -7.8125 2.058594 -7.679688 C 2.328125 -7.558594 2.585938 -7.347656 2.855469 -7.105469 C 3.15625 -6.851562 3.472656 -6.582031 3.832031 -6.417969 C 4.027344 -6.324219 4.222656 -6.296875 4.433594 -6.296875 C 4.71875 -6.296875 5.003906 -6.371094 5.257812 -6.535156 C 5.679688 -6.808594 5.933594 -7.273438 5.933594 -7.796875 C 5.933594 -8.007812 5.753906 -8.1875 5.542969 -8.1875 C 5.320312 -8.1875 5.152344 -8.007812 5.140625 -7.796875 C 5.140625 -7.46875 4.972656 -7.289062 4.839844 -7.199219 C 4.628906 -7.0625 4.371094 -7.046875 4.164062 -7.136719 C 3.890625 -7.257812 3.636719 -7.484375 3.367188 -7.707031 C 3.066406 -7.964844 2.765625 -8.21875 2.402344 -8.398438 C 1.921875 -8.625 1.367188 -8.640625 0.839844 -8.460938 C 0.195312 -8.21875 -0.359375 -7.691406 -0.675781 -6.988281 C -0.765625 -6.792969 -0.675781 -6.550781 -0.480469 -6.460938 C -0.285156 -6.371094 -0.0585938 -6.460938 0.046875 -6.65625 Z M 0.046875 -6.65625 "/></g></g></g><g fill="#523e27" fill-opacity="1"><g transform="translate(207.879031, 59.899331)"><g><path d="M 10.953125 -4.265625 C 10.878906 -4.34375 10.789062 -4.371094 10.683594 -4.371094 C 10.578125 -4.371094 10.472656 -4.34375 10.398438 -4.265625 C 8.59375 -2.464844 6.039062 -1.636719 3.53125 -2.058594 C 3.335938 -2.105469 3.199219 -2.285156 3.230469 -2.480469 C 3.351562 -3.199219 3.289062 -3.9375 2.871094 -4.175781 C 2.597656 -4.328125 2.195312 -4.34375 1.714844 -3.53125 C 1.53125 -3.261719 1.472656 -2.929688 1.53125 -2.613281 C 1.609375 -2.300781 1.804688 -2.011719 2.074219 -1.847656 C 2.238281 -1.714844 2.042969 -1.488281 1.9375 -1.382812 C 1.652344 -1.035156 1.15625 -0.976562 0.8125 -1.246094 C 0.375 -1.441406 0.179688 -1.921875 0.34375 -2.359375 C 0.539062 -3.15625 1.324219 -3.847656 1.609375 -3.847656 C 1.816406 -3.847656 2 -4.027344 2 -4.238281 C 2.011719 -4.449219 1.832031 -4.628906 1.621094 -4.644531 L 1.609375 -4.644531 C 0.855469 -4.644531 -0.148438 -3.621094 -0.421875 -2.554688 C -0.675781 -1.773438 -0.316406 -0.917969 0.4375 -0.554688 C 0.722656 -0.390625 1.035156 -0.316406 1.367188 -0.300781 C 2.011719 -0.332031 2.585938 -0.722656 2.855469 -1.324219 C 2.886719 -1.367188 2.960938 -1.398438 3.019531 -1.382812 C 4.929688 -0.8125 8.414062 -1.171875 10.953125 -3.695312 C 11.027344 -3.773438 11.074219 -3.875 11.074219 -3.980469 C 11.074219 -4.085938 11.027344 -4.191406 10.953125 -4.265625 Z M 2.449219 -2.554688 C 2.285156 -2.703125 2.253906 -2.945312 2.390625 -3.125 C 2.433594 -3.199219 2.464844 -3.246094 2.496094 -3.289062 C 2.507812 -3.050781 2.496094 -2.792969 2.449219 -2.554688 Z M 2.449219 -2.554688 "/></g></g></g><g fill="#523e27" fill-opacity="1"><g transform="translate(218.256758, 59.899331)"><g/></g></g><g fill="#523e27" fill-opacity="1"><g transform="translate(135.852994, 107.835716)"><g><path d="M 4.109375 0.125 C 3.367188 0.125 2.722656 -0.0195312 2.171875 -0.3125 C 1.628906 -0.613281 1.210938 -1.007812 0.921875 -1.5 C 0.628906 -2 0.484375 -2.546875 0.484375 -3.140625 C 0.484375 -3.785156 0.648438 -4.347656 0.984375 -4.828125 C 1.316406 -5.316406 1.765625 -5.691406 2.328125 -5.953125 C 2.898438 -6.210938 3.546875 -6.34375 4.265625 -6.34375 C 4.617188 -6.34375 4.945312 -6.3125 5.25 -6.25 C 5.5625 -6.1875 5.816406 -6.097656 6.015625 -5.984375 C 6.066406 -5.953125 6.097656 -5.925781 6.109375 -5.90625 C 6.117188 -5.894531 6.128906 -5.847656 6.140625 -5.765625 L 6.265625 -4.546875 C 6.265625 -4.523438 6.242188 -4.507812 6.203125 -4.5 C 6.171875 -4.5 6.15625 -4.507812 6.15625 -4.53125 C 6.007812 -5.019531 5.757812 -5.414062 5.40625 -5.71875 C 5.0625 -6.03125 4.601562 -6.1875 4.03125 -6.1875 C 3.53125 -6.1875 3.070312 -6.066406 2.65625 -5.828125 C 2.25 -5.597656 1.925781 -5.257812 1.6875 -4.8125 C 1.457031 -4.375 1.34375 -3.867188 1.34375 -3.296875 C 1.34375 -2.710938 1.457031 -2.171875 1.6875 -1.671875 C 1.914062 -1.179688 2.257812 -0.785156 2.71875 -0.484375 C 3.175781 -0.179688 3.722656 -0.03125 4.359375 -0.03125 C 4.816406 -0.03125 5.132812 -0.117188 5.3125 -0.296875 C 5.5 -0.472656 5.59375 -0.789062 5.59375 -1.25 C 5.59375 -1.59375 5.570312 -1.832031 5.53125 -1.96875 C 5.488281 -2.101562 5.394531 -2.191406 5.25 -2.234375 C 5.113281 -2.285156 4.863281 -2.3125 4.5 -2.3125 C 4.457031 -2.3125 4.4375 -2.335938 4.4375 -2.390625 C 4.4375 -2.410156 4.441406 -2.425781 4.453125 -2.4375 C 4.460938 -2.457031 4.472656 -2.46875 4.484375 -2.46875 C 5.015625 -2.4375 5.441406 -2.421875 5.765625 -2.421875 C 6.078125 -2.421875 6.410156 -2.429688 6.765625 -2.453125 C 6.796875 -2.453125 6.8125 -2.425781 6.8125 -2.375 C 6.8125 -2.332031 6.796875 -2.3125 6.765625 -2.3125 C 6.609375 -2.320312 6.5 -2.300781 6.4375 -2.25 C 6.375 -2.195312 6.332031 -2.09375 6.3125 -1.9375 C 6.289062 -1.789062 6.28125 -1.523438 6.28125 -1.140625 C 6.28125 -0.847656 6.289062 -0.632812 6.3125 -0.5 C 6.332031 -0.375 6.34375 -0.296875 6.34375 -0.265625 C 6.34375 -0.222656 6.335938 -0.195312 6.328125 -0.1875 C 6.316406 -0.175781 6.285156 -0.164062 6.234375 -0.15625 C 5.410156 0.03125 4.703125 0.125 4.109375 0.125 Z M 4.109375 0.125 "/></g></g></g><g fill="#523e27" fill-opacity="1"><g transform="translate(143.010717, 107.835716)"><g><path d="M 4.78125 -1.5 C 4.78125 -1.519531 4.800781 -1.523438 4.84375 -1.515625 C 4.882812 -1.515625 4.90625 -1.503906 4.90625 -1.484375 C 4.84375 -1.054688 4.8125 -0.613281 4.8125 -0.15625 C 4.8125 -0.09375 4.800781 -0.0507812 4.78125 -0.03125 C 4.757812 -0.0078125 4.71875 0 4.65625 0 L 0.421875 0 C 0.410156 0 0.40625 -0.0195312 0.40625 -0.0625 C 0.40625 -0.101562 0.410156 -0.125 0.421875 -0.125 C 0.671875 -0.125 0.851562 -0.140625 0.96875 -0.171875 C 1.082031 -0.203125 1.160156 -0.265625 1.203125 -0.359375 C 1.242188 -0.460938 1.265625 -0.613281 1.265625 -0.8125 L 1.265625 -5.4375 C 1.265625 -5.632812 1.242188 -5.78125 1.203125 -5.875 C 1.160156 -5.96875 1.082031 -6.03125 0.96875 -6.0625 C 0.851562 -6.101562 0.671875 -6.125 0.421875 -6.125 C 0.410156 -6.125 0.40625 -6.140625 0.40625 -6.171875 C 0.40625 -6.210938 0.410156 -6.234375 0.421875 -6.234375 L 4.484375 -6.234375 C 4.546875 -6.234375 4.578125 -6.207031 4.578125 -6.15625 L 4.59375 -4.90625 C 4.59375 -4.882812 4.570312 -4.875 4.53125 -4.875 C 4.5 -4.875 4.484375 -4.882812 4.484375 -4.90625 C 4.441406 -5.257812 4.316406 -5.53125 4.109375 -5.71875 C 3.898438 -5.914062 3.632812 -6.015625 3.3125 -6.015625 L 2.75 -6.015625 C 2.4375 -6.015625 2.226562 -5.972656 2.125 -5.890625 C 2.03125 -5.804688 1.984375 -5.640625 1.984375 -5.390625 L 1.984375 -3.359375 L 3.140625 -3.359375 C 3.472656 -3.359375 3.710938 -3.410156 3.859375 -3.515625 C 4.003906 -3.628906 4.078125 -3.816406 4.078125 -4.078125 C 4.078125 -4.085938 4.097656 -4.09375 4.140625 -4.09375 C 4.179688 -4.09375 4.203125 -4.085938 4.203125 -4.078125 L 4.1875 -3.25 C 4.1875 -3.050781 4.191406 -2.90625 4.203125 -2.8125 L 4.21875 -2.3125 C 4.21875 -2.289062 4.195312 -2.28125 4.15625 -2.28125 C 4.113281 -2.28125 4.09375 -2.289062 4.09375 -2.3125 C 4.09375 -2.601562 4.015625 -2.8125 3.859375 -2.9375 C 3.710938 -3.070312 3.460938 -3.140625 3.109375 -3.140625 L 1.984375 -3.140625 L 1.984375 -0.84375 C 1.984375 -0.675781 2.003906 -0.546875 2.046875 -0.453125 C 2.085938 -0.367188 2.15625 -0.304688 2.25 -0.265625 C 2.351562 -0.234375 2.507812 -0.21875 2.71875 -0.21875 L 3.421875 -0.21875 C 3.773438 -0.21875 4.066406 -0.328125 4.296875 -0.546875 C 4.535156 -0.773438 4.695312 -1.09375 4.78125 -1.5 Z M 4.78125 -1.5 "/></g></g></g><g fill="#523e27" fill-opacity="1"><g transform="translate(148.401468, 107.835716)"><g><path d="M 1.5 -5.109375 C 1.5 -4.847656 1.5625 -4.617188 1.6875 -4.421875 C 1.8125 -4.234375 1.960938 -4.070312 2.140625 -3.9375 C 2.328125 -3.8125 2.582031 -3.648438 2.90625 -3.453125 C 3.25 -3.242188 3.515625 -3.066406 3.703125 -2.921875 C 3.898438 -2.773438 4.066406 -2.59375 4.203125 -2.375 C 4.335938 -2.15625 4.40625 -1.894531 4.40625 -1.59375 C 4.40625 -1.269531 4.320312 -0.976562 4.15625 -0.71875 C 3.988281 -0.457031 3.75 -0.25 3.4375 -0.09375 C 3.125 0.0507812 2.757812 0.125 2.34375 0.125 C 1.800781 0.125 1.320312 0.00390625 0.90625 -0.234375 C 0.863281 -0.253906 0.835938 -0.273438 0.828125 -0.296875 C 0.816406 -0.328125 0.804688 -0.367188 0.796875 -0.421875 L 0.6875 -1.828125 C 0.675781 -1.847656 0.6875 -1.863281 0.71875 -1.875 C 0.757812 -1.882812 0.785156 -1.875 0.796875 -1.84375 C 0.929688 -1.351562 1.140625 -0.929688 1.421875 -0.578125 C 1.710938 -0.234375 2.09375 -0.0625 2.5625 -0.0625 C 2.894531 -0.0625 3.171875 -0.144531 3.390625 -0.3125 C 3.609375 -0.488281 3.71875 -0.773438 3.71875 -1.171875 C 3.71875 -1.472656 3.648438 -1.726562 3.515625 -1.9375 C 3.378906 -2.15625 3.21875 -2.335938 3.03125 -2.484375 C 2.84375 -2.640625 2.582031 -2.8125 2.25 -3 C 1.925781 -3.207031 1.675781 -3.378906 1.5 -3.515625 C 1.320312 -3.648438 1.164062 -3.820312 1.03125 -4.03125 C 0.90625 -4.25 0.84375 -4.5 0.84375 -4.78125 C 0.84375 -5.125 0.929688 -5.410156 1.109375 -5.640625 C 1.296875 -5.878906 1.535156 -6.054688 1.828125 -6.171875 C 2.117188 -6.285156 2.425781 -6.34375 2.75 -6.34375 C 3.164062 -6.34375 3.5625 -6.269531 3.9375 -6.125 C 4.039062 -6.070312 4.09375 -6.007812 4.09375 -5.9375 L 4.15625 -4.75 C 4.15625 -4.71875 4.132812 -4.695312 4.09375 -4.6875 C 4.0625 -4.6875 4.039062 -4.695312 4.03125 -4.71875 C 3.96875 -5.070312 3.816406 -5.40625 3.578125 -5.71875 C 3.347656 -6.03125 3.015625 -6.1875 2.578125 -6.1875 C 2.222656 -6.1875 1.953125 -6.082031 1.765625 -5.875 C 1.585938 -5.675781 1.5 -5.421875 1.5 -5.109375 Z M 1.5 -5.109375 "/></g></g></g><g fill="#523e27" fill-opacity="1"><g transform="translate(153.342992, 107.835716)"><g><path d="M 1.9375 -6.046875 C 1.519531 -6.046875 1.203125 -5.929688 0.984375 -5.703125 C 0.765625 -5.484375 0.601562 -5.125 0.5 -4.625 C 0.488281 -4.601562 0.460938 -4.59375 0.421875 -4.59375 C 0.390625 -4.601562 0.375 -4.613281 0.375 -4.625 C 0.40625 -4.8125 0.4375 -5.109375 0.46875 -5.515625 C 0.5 -5.929688 0.515625 -6.242188 0.515625 -6.453125 C 0.515625 -6.492188 0.535156 -6.515625 0.578125 -6.515625 C 0.617188 -6.515625 0.640625 -6.492188 0.640625 -6.453125 C 0.640625 -6.304688 0.816406 -6.234375 1.171875 -6.234375 C 1.742188 -6.210938 2.414062 -6.203125 3.1875 -6.203125 C 3.582031 -6.203125 4 -6.210938 4.4375 -6.234375 L 5.109375 -6.234375 C 5.347656 -6.234375 5.523438 -6.25 5.640625 -6.28125 C 5.765625 -6.320312 5.84375 -6.390625 5.875 -6.484375 C 5.875 -6.515625 5.890625 -6.53125 5.921875 -6.53125 C 5.960938 -6.53125 5.984375 -6.515625 5.984375 -6.484375 C 5.960938 -6.296875 5.941406 -6 5.921875 -5.59375 C 5.898438 -5.195312 5.890625 -4.875 5.890625 -4.625 C 5.890625 -4.613281 5.867188 -4.609375 5.828125 -4.609375 C 5.796875 -4.609375 5.773438 -4.613281 5.765625 -4.625 C 5.742188 -5.132812 5.628906 -5.5 5.421875 -5.71875 C 5.210938 -5.9375 4.882812 -6.046875 4.4375 -6.046875 C 4.175781 -6.046875 3.984375 -6.03125 3.859375 -6 C 3.742188 -5.976562 3.664062 -5.925781 3.625 -5.84375 C 3.582031 -5.757812 3.5625 -5.613281 3.5625 -5.40625 L 3.5625 -0.8125 C 3.5625 -0.601562 3.582031 -0.453125 3.625 -0.359375 C 3.664062 -0.265625 3.75 -0.203125 3.875 -0.171875 C 4.007812 -0.140625 4.222656 -0.125 4.515625 -0.125 C 4.523438 -0.125 4.53125 -0.101562 4.53125 -0.0625 C 4.53125 -0.0195312 4.523438 0 4.515625 0 C 4.285156 0 4.101562 -0.00390625 3.96875 -0.015625 L 2.421875 -0.015625 C 2.285156 -0.00390625 2.097656 0 1.859375 0 C 1.847656 0 1.84375 -0.0195312 1.84375 -0.0625 C 1.84375 -0.101562 1.847656 -0.125 1.859375 -0.125 C 2.140625 -0.125 2.347656 -0.140625 2.484375 -0.171875 C 2.617188 -0.203125 2.707031 -0.265625 2.75 -0.359375 C 2.800781 -0.460938 2.828125 -0.613281 2.828125 -0.8125 L 2.828125 -5.4375 C 2.828125 -5.625 2.804688 -5.757812 2.765625 -5.84375 C 2.722656 -5.925781 2.640625 -5.976562 2.515625 -6 C 2.398438 -6.03125 2.207031 -6.046875 1.9375 -6.046875 Z M 1.9375 -6.046875 "/></g></g></g><g fill="#523e27" fill-opacity="1"><g transform="translate(159.692102, 107.835716)"><g><path d="M 2.15625 -7.15625 C 2.132812 -7.15625 2.117188 -7.160156 2.109375 -7.171875 C 2.097656 -7.191406 2.097656 -7.210938 2.109375 -7.234375 C 2.222656 -7.398438 2.351562 -7.546875 2.5 -7.671875 C 2.644531 -7.804688 2.796875 -7.875 2.953125 -7.875 C 3.046875 -7.875 3.210938 -7.84375 3.453125 -7.78125 C 3.753906 -7.6875 4 -7.640625 4.1875 -7.640625 C 4.300781 -7.640625 4.394531 -7.660156 4.46875 -7.703125 C 4.539062 -7.742188 4.613281 -7.8125 4.6875 -7.90625 L 4.703125 -7.90625 C 4.722656 -7.90625 4.738281 -7.894531 4.75 -7.875 C 4.769531 -7.863281 4.773438 -7.851562 4.765625 -7.84375 C 4.585938 -7.582031 4.441406 -7.40625 4.328125 -7.3125 C 4.210938 -7.21875 4.09375 -7.171875 3.96875 -7.171875 C 3.875 -7.171875 3.773438 -7.179688 3.671875 -7.203125 C 3.578125 -7.234375 3.476562 -7.265625 3.375 -7.296875 C 3.257812 -7.328125 3.140625 -7.351562 3.015625 -7.375 C 2.890625 -7.40625 2.773438 -7.421875 2.671875 -7.421875 C 2.566406 -7.421875 2.484375 -7.40625 2.421875 -7.375 C 2.367188 -7.34375 2.316406 -7.300781 2.265625 -7.25 C 2.222656 -7.207031 2.191406 -7.175781 2.171875 -7.15625 Z M 7.015625 -0.125 C 7.035156 -0.125 7.046875 -0.101562 7.046875 -0.0625 C 7.046875 -0.0195312 7.035156 0 7.015625 0 C 6.878906 0 6.679688 -0.00390625 6.421875 -0.015625 C 6.148438 -0.0351562 5.953125 -0.046875 5.828125 -0.046875 C 5.671875 -0.046875 5.484375 -0.0351562 5.265625 -0.015625 C 5.046875 -0.00390625 4.878906 0 4.765625 0 C 4.734375 0 4.71875 -0.0195312 4.71875 -0.0625 C 4.71875 -0.101562 4.734375 -0.125 4.765625 -0.125 C 5.003906 -0.125 5.175781 -0.144531 5.28125 -0.1875 C 5.382812 -0.226562 5.4375 -0.304688 5.4375 -0.421875 C 5.4375 -0.515625 5.390625 -0.664062 5.296875 -0.875 L 4.4375 -2.671875 L 2.046875 -2.671875 L 1.453125 -1.296875 C 1.367188 -1.097656 1.328125 -0.914062 1.328125 -0.75 C 1.328125 -0.332031 1.648438 -0.125 2.296875 -0.125 C 2.328125 -0.125 2.34375 -0.101562 2.34375 -0.0625 C 2.34375 -0.0195312 2.328125 0 2.296875 0 C 2.171875 0 2 -0.00390625 1.78125 -0.015625 C 1.519531 -0.0351562 1.300781 -0.046875 1.125 -0.046875 C 0.957031 -0.046875 0.753906 -0.0351562 0.515625 -0.015625 C 0.304688 -0.00390625 0.132812 0 0 0 C -0.03125 0 -0.046875 -0.0195312 -0.046875 -0.0625 C -0.046875 -0.101562 -0.03125 -0.125 0 -0.125 C 0.1875 -0.125 0.34375 -0.15625 0.46875 -0.21875 C 0.601562 -0.289062 0.726562 -0.414062 0.84375 -0.59375 C 0.96875 -0.78125 1.101562 -1.046875 1.25 -1.390625 L 3.359375 -6.3125 C 3.367188 -6.332031 3.394531 -6.34375 3.4375 -6.34375 C 3.476562 -6.34375 3.5 -6.332031 3.5 -6.3125 L 5.875 -1.375 C 6.101562 -0.882812 6.296875 -0.550781 6.453125 -0.375 C 6.617188 -0.207031 6.804688 -0.125 7.015625 -0.125 Z M 2.140625 -2.875 L 4.328125 -2.875 L 3.171875 -5.296875 Z M 2.140625 -2.875 "/></g></g></g><g fill="#523e27" fill-opacity="1"><g transform="translate(166.720048, 107.835716)"><g><path d="M 3.65625 0.125 C 3.03125 0.125 2.476562 -0.0195312 2 -0.3125 C 1.519531 -0.601562 1.144531 -0.992188 0.875 -1.484375 C 0.613281 -1.984375 0.484375 -2.523438 0.484375 -3.109375 C 0.484375 -3.796875 0.65625 -4.382812 1 -4.875 C 1.351562 -5.363281 1.800781 -5.726562 2.34375 -5.96875 C 2.882812 -6.21875 3.4375 -6.34375 4 -6.34375 C 4.632812 -6.34375 5.191406 -6.195312 5.671875 -5.90625 C 6.148438 -5.613281 6.515625 -5.222656 6.765625 -4.734375 C 7.023438 -4.242188 7.15625 -3.726562 7.15625 -3.1875 C 7.15625 -2.582031 6.992188 -2.023438 6.671875 -1.515625 C 6.359375 -1.015625 5.929688 -0.613281 5.390625 -0.3125 C 4.859375 -0.0195312 4.28125 0.125 3.65625 0.125 Z M 4 -0.09375 C 4.4375 -0.09375 4.832031 -0.203125 5.1875 -0.421875 C 5.539062 -0.648438 5.816406 -0.972656 6.015625 -1.390625 C 6.210938 -1.816406 6.3125 -2.320312 6.3125 -2.90625 C 6.3125 -3.519531 6.203125 -4.070312 5.984375 -4.5625 C 5.765625 -5.050781 5.445312 -5.429688 5.03125 -5.703125 C 4.613281 -5.972656 4.132812 -6.109375 3.59375 -6.109375 C 2.882812 -6.109375 2.328125 -5.875 1.921875 -5.40625 C 1.523438 -4.9375 1.328125 -4.289062 1.328125 -3.46875 C 1.328125 -2.84375 1.4375 -2.269531 1.65625 -1.75 C 1.882812 -1.238281 2.203125 -0.832031 2.609375 -0.53125 C 3.015625 -0.238281 3.476562 -0.09375 4 -0.09375 Z M 4 -0.09375 "/></g></g></g><g fill="#523e27" fill-opacity="1"><g transform="translate(174.366928, 107.835716)"><g/></g></g><g fill="#523e27" fill-opacity="1"><g transform="translate(176.70292, 107.835716)"><g><path d="M 3.0625 0.046875 C 2.863281 0.046875 2.632812 0.0351562 2.375 0.015625 C 2.269531 0.00390625 2.144531 0 2 0 C 1.863281 -0.0078125 1.707031 -0.015625 1.53125 -0.015625 L 0.84375 -0.015625 C 0.71875 -0.00390625 0.550781 0 0.34375 0 C 0.320312 0 0.3125 -0.0195312 0.3125 -0.0625 C 0.3125 -0.101562 0.320312 -0.125 0.34375 -0.125 C 0.582031 -0.125 0.757812 -0.140625 0.875 -0.171875 C 0.988281 -0.203125 1.066406 -0.265625 1.109375 -0.359375 C 1.148438 -0.460938 1.171875 -0.613281 1.171875 -0.8125 L 1.171875 -5.4375 C 1.171875 -5.632812 1.148438 -5.78125 1.109375 -5.875 C 1.078125 -5.96875 1.003906 -6.03125 0.890625 -6.0625 C 0.773438 -6.101562 0.59375 -6.125 0.34375 -6.125 C 0.332031 -6.125 0.328125 -6.140625 0.328125 -6.171875 C 0.328125 -6.210938 0.332031 -6.234375 0.34375 -6.234375 L 0.84375 -6.234375 C 1.132812 -6.210938 1.363281 -6.203125 1.53125 -6.203125 C 1.789062 -6.203125 2.039062 -6.210938 2.28125 -6.234375 C 2.601562 -6.253906 2.816406 -6.265625 2.921875 -6.265625 C 3.617188 -6.265625 4.234375 -6.128906 4.765625 -5.859375 C 5.296875 -5.597656 5.707031 -5.234375 6 -4.765625 C 6.289062 -4.304688 6.4375 -3.789062 6.4375 -3.21875 C 6.4375 -2.570312 6.285156 -2 5.984375 -1.5 C 5.679688 -1.007812 5.269531 -0.628906 4.75 -0.359375 C 4.238281 -0.0859375 3.675781 0.046875 3.0625 0.046875 Z M 2.96875 -0.125 C 3.476562 -0.125 3.929688 -0.234375 4.328125 -0.453125 C 4.722656 -0.671875 5.03125 -1 5.25 -1.4375 C 5.476562 -1.875 5.59375 -2.394531 5.59375 -3 C 5.59375 -3.582031 5.484375 -4.109375 5.265625 -4.578125 C 5.054688 -5.046875 4.753906 -5.414062 4.359375 -5.6875 C 3.972656 -5.957031 3.523438 -6.09375 3.015625 -6.09375 C 2.734375 -6.09375 2.515625 -6.078125 2.359375 -6.046875 C 2.203125 -6.015625 2.085938 -5.953125 2.015625 -5.859375 C 1.941406 -5.765625 1.90625 -5.613281 1.90625 -5.40625 L 1.90625 -0.921875 C 1.90625 -0.628906 1.976562 -0.421875 2.125 -0.296875 C 2.269531 -0.179688 2.550781 -0.125 2.96875 -0.125 Z M 2.96875 -0.125 "/></g></g></g><g fill="#523e27" fill-opacity="1"><g transform="translate(183.631035, 107.835716)"><g><path d="M 4.78125 -1.5 C 4.78125 -1.519531 4.800781 -1.523438 4.84375 -1.515625 C 4.882812 -1.515625 4.90625 -1.503906 4.90625 -1.484375 C 4.84375 -1.054688 4.8125 -0.613281 4.8125 -0.15625 C 4.8125 -0.09375 4.800781 -0.0507812 4.78125 -0.03125 C 4.757812 -0.0078125 4.71875 0 4.65625 0 L 0.421875 0 C 0.410156 0 0.40625 -0.0195312 0.40625 -0.0625 C 0.40625 -0.101562 0.410156 -0.125 0.421875 -0.125 C 0.671875 -0.125 0.851562 -0.140625 0.96875 -0.171875 C 1.082031 -0.203125 1.160156 -0.265625 1.203125 -0.359375 C 1.242188 -0.460938 1.265625 -0.613281 1.265625 -0.8125 L 1.265625 -5.4375 C 1.265625 -5.632812 1.242188 -5.78125 1.203125 -5.875 C 1.160156 -5.96875 1.082031 -6.03125 0.96875 -6.0625 C 0.851562 -6.101562 0.671875 -6.125 0.421875 -6.125 C 0.410156 -6.125 0.40625 -6.140625 0.40625 -6.171875 C 0.40625 -6.210938 0.410156 -6.234375 0.421875 -6.234375 L 4.484375 -6.234375 C 4.546875 -6.234375 4.578125 -6.207031 4.578125 -6.15625 L 4.59375 -4.90625 C 4.59375 -4.882812 4.570312 -4.875 4.53125 -4.875 C 4.5 -4.875 4.484375 -4.882812 4.484375 -4.90625 C 4.441406 -5.257812 4.316406 -5.53125 4.109375 -5.71875 C 3.898438 -5.914062 3.632812 -6.015625 3.3125 -6.015625 L 2.75 -6.015625 C 2.4375 -6.015625 2.226562 -5.972656 2.125 -5.890625 C 2.03125 -5.804688 1.984375 -5.640625 1.984375 -5.390625 L 1.984375 -3.359375 L 3.140625 -3.359375 C 3.472656 -3.359375 3.710938 -3.410156 3.859375 -3.515625 C 4.003906 -3.628906 4.078125 -3.816406 4.078125 -4.078125 C 4.078125 -4.085938 4.097656 -4.09375 4.140625 -4.09375 C 4.179688 -4.09375 4.203125 -4.085938 4.203125 -4.078125 L 4.1875 -3.25 C 4.1875 -3.050781 4.191406 -2.90625 4.203125 -2.8125 L 4.21875 -2.3125 C 4.21875 -2.289062 4.195312 -2.28125 4.15625 -2.28125 C 4.113281 -2.28125 4.09375 -2.289062 4.09375 -2.3125 C 4.09375 -2.601562 4.015625 -2.8125 3.859375 -2.9375 C 3.710938 -3.070312 3.460938 -3.140625 3.109375 -3.140625 L 1.984375 -3.140625 L 1.984375 -0.84375 C 1.984375 -0.675781 2.003906 -0.546875 2.046875 -0.453125 C 2.085938 -0.367188 2.15625 -0.304688 2.25 -0.265625 C 2.351562 -0.234375 2.507812 -0.21875 2.71875 -0.21875 L 3.421875 -0.21875 C 3.773438 -0.21875 4.066406 -0.328125 4.296875 -0.546875 C 4.535156 -0.773438 4.695312 -1.09375 4.78125 -1.5 Z M 4.78125 -1.5 "/></g></g></g><g fill="#523e27" fill-opacity="1"><g transform="translate(189.021785, 107.835716)"><g/></g></g><g fill="#523e27" fill-opacity="1"><g transform="translate(191.357777, 107.835716)"><g><path d="M 1.9375 -6.046875 C 1.519531 -6.046875 1.203125 -5.929688 0.984375 -5.703125 C 0.765625 -5.484375 0.601562 -5.125 0.5 -4.625 C 0.488281 -4.601562 0.460938 -4.59375 0.421875 -4.59375 C 0.390625 -4.601562 0.375 -4.613281 0.375 -4.625 C 0.40625 -4.8125 0.4375 -5.109375 0.46875 -5.515625 C 0.5 -5.929688 0.515625 -6.242188 0.515625 -6.453125 C 0.515625 -6.492188 0.535156 -6.515625 0.578125 -6.515625 C 0.617188 -6.515625 0.640625 -6.492188 0.640625 -6.453125 C 0.640625 -6.304688 0.816406 -6.234375 1.171875 -6.234375 C 1.742188 -6.210938 2.414062 -6.203125 3.1875 -6.203125 C 3.582031 -6.203125 4 -6.210938 4.4375 -6.234375 L 5.109375 -6.234375 C 5.347656 -6.234375 5.523438 -6.25 5.640625 -6.28125 C 5.765625 -6.320312 5.84375 -6.390625 5.875 -6.484375 C 5.875 -6.515625 5.890625 -6.53125 5.921875 -6.53125 C 5.960938 -6.53125 5.984375 -6.515625 5.984375 -6.484375 C 5.960938 -6.296875 5.941406 -6 5.921875 -5.59375 C 5.898438 -5.195312 5.890625 -4.875 5.890625 -4.625 C 5.890625 -4.613281 5.867188 -4.609375 5.828125 -4.609375 C 5.796875 -4.609375 5.773438 -4.613281 5.765625 -4.625 C 5.742188 -5.132812 5.628906 -5.5 5.421875 -5.71875 C 5.210938 -5.9375 4.882812 -6.046875 4.4375 -6.046875 C 4.175781 -6.046875 3.984375 -6.03125 3.859375 -6 C 3.742188 -5.976562 3.664062 -5.925781 3.625 -5.84375 C 3.582031 -5.757812 3.5625 -5.613281 3.5625 -5.40625 L 3.5625 -0.8125 C 3.5625 -0.601562 3.582031 -0.453125 3.625 -0.359375 C 3.664062 -0.265625 3.75 -0.203125 3.875 -0.171875 C 4.007812 -0.140625 4.222656 -0.125 4.515625 -0.125 C 4.523438 -0.125 4.53125 -0.101562 4.53125 -0.0625 C 4.53125 -0.0195312 4.523438 0 4.515625 0 C 4.285156 0 4.101562 -0.00390625 3.96875 -0.015625 L 2.421875 -0.015625 C 2.285156 -0.00390625 2.097656 0 1.859375 0 C 1.847656 0 1.84375 -0.0195312 1.84375 -0.0625 C 1.84375 -0.101562 1.847656 -0.125 1.859375 -0.125 C 2.140625 -0.125 2.347656 -0.140625 2.484375 -0.171875 C 2.617188 -0.203125 2.707031 -0.265625 2.75 -0.359375 C 2.800781 -0.460938 2.828125 -0.613281 2.828125 -0.8125 L 2.828125 -5.4375 C 2.828125 -5.625 2.804688 -5.757812 2.765625 -5.84375 C 2.722656 -5.925781 2.640625 -5.976562 2.515625 -6 C 2.398438 -6.03125 2.207031 -6.046875 1.9375 -6.046875 Z M 1.9375 -6.046875 "/></g></g></g><g fill="#523e27" fill-opacity="1"><g transform="translate(197.706888, 107.835716)"><g><path d="M 6.859375 -0.125 C 6.878906 -0.125 6.890625 -0.101562 6.890625 -0.0625 C 6.890625 -0.0195312 6.878906 0 6.859375 0 L 5.484375 0 C 5.328125 0 5.023438 -0.269531 4.578125 -0.8125 C 4.140625 -1.351562 3.601562 -2.109375 2.96875 -3.078125 C 2.789062 -3.046875 2.625 -3.03125 2.46875 -3.03125 C 2.4375 -3.03125 2.28125 -3.039062 2 -3.0625 L 2 -0.8125 C 2 -0.601562 2.015625 -0.453125 2.046875 -0.359375 C 2.085938 -0.265625 2.164062 -0.203125 2.28125 -0.171875 C 2.394531 -0.140625 2.578125 -0.125 2.828125 -0.125 C 2.847656 -0.125 2.859375 -0.101562 2.859375 -0.0625 C 2.859375 -0.0195312 2.847656 0 2.828125 0 C 2.609375 0 2.445312 -0.00390625 2.34375 -0.015625 L 0.9375 -0.015625 C 0.8125 -0.00390625 0.640625 0 0.421875 0 C 0.410156 0 0.40625 -0.0195312 0.40625 -0.0625 C 0.40625 -0.101562 0.410156 -0.125 0.421875 -0.125 C 0.671875 -0.125 0.851562 -0.140625 0.96875 -0.171875 C 1.082031 -0.203125 1.160156 -0.265625 1.203125 -0.359375 C 1.242188 -0.460938 1.265625 -0.613281 1.265625 -0.8125 L 1.265625 -5.4375 C 1.265625 -5.632812 1.242188 -5.78125 1.203125 -5.875 C 1.160156 -5.96875 1.082031 -6.03125 0.96875 -6.0625 C 0.863281 -6.101562 0.691406 -6.125 0.453125 -6.125 C 0.429688 -6.125 0.421875 -6.140625 0.421875 -6.171875 C 0.421875 -6.210938 0.429688 -6.234375 0.453125 -6.234375 L 0.9375 -6.234375 C 1.21875 -6.210938 1.445312 -6.203125 1.625 -6.203125 C 1.769531 -6.203125 1.90625 -6.207031 2.03125 -6.21875 C 2.15625 -6.226562 2.265625 -6.234375 2.359375 -6.234375 C 2.597656 -6.253906 2.828125 -6.265625 3.046875 -6.265625 C 3.578125 -6.265625 3.988281 -6.144531 4.28125 -5.90625 C 4.582031 -5.675781 4.734375 -5.363281 4.734375 -4.96875 C 4.734375 -4.601562 4.628906 -4.273438 4.421875 -3.984375 C 4.210938 -3.691406 3.929688 -3.460938 3.578125 -3.296875 C 4.140625 -2.492188 4.609375 -1.863281 4.984375 -1.40625 C 5.359375 -0.957031 5.691406 -0.628906 5.984375 -0.421875 C 6.285156 -0.222656 6.578125 -0.125 6.859375 -0.125 Z M 2 -3.3125 C 2.1875 -3.289062 2.382812 -3.28125 2.59375 -3.28125 C 3.082031 -3.28125 3.429688 -3.390625 3.640625 -3.609375 C 3.859375 -3.828125 3.96875 -4.175781 3.96875 -4.65625 C 3.96875 -5.175781 3.859375 -5.546875 3.640625 -5.765625 C 3.421875 -5.992188 3.109375 -6.109375 2.703125 -6.109375 C 2.441406 -6.109375 2.257812 -6.0625 2.15625 -5.96875 C 2.050781 -5.875 2 -5.6875 2 -5.40625 Z M 2 -3.3125 "/></g></g></g><g fill="#523e27" fill-opacity="1"><g transform="translate(204.475278, 107.835716)"><g><path d="M 2.453125 -6.765625 C 2.429688 -6.765625 2.414062 -6.78125 2.40625 -6.8125 C 2.394531 -6.84375 2.398438 -6.863281 2.421875 -6.875 C 2.617188 -6.988281 2.820312 -7.109375 3.03125 -7.234375 C 3.25 -7.367188 3.382812 -7.453125 3.4375 -7.484375 C 3.675781 -7.648438 3.851562 -7.769531 3.96875 -7.84375 C 4.007812 -7.863281 4.097656 -7.847656 4.234375 -7.796875 C 4.367188 -7.753906 4.488281 -7.703125 4.59375 -7.640625 C 4.707031 -7.585938 4.738281 -7.554688 4.6875 -7.546875 C 3.894531 -7.347656 3.15625 -7.085938 2.46875 -6.765625 Z M 7.015625 -0.125 C 7.035156 -0.125 7.046875 -0.101562 7.046875 -0.0625 C 7.046875 -0.0195312 7.035156 0 7.015625 0 C 6.878906 0 6.679688 -0.00390625 6.421875 -0.015625 C 6.148438 -0.0351562 5.953125 -0.046875 5.828125 -0.046875 C 5.671875 -0.046875 5.484375 -0.0351562 5.265625 -0.015625 C 5.046875 -0.00390625 4.878906 0 4.765625 0 C 4.734375 0 4.71875 -0.0195312 4.71875 -0.0625 C 4.71875 -0.101562 4.734375 -0.125 4.765625 -0.125 C 5.003906 -0.125 5.175781 -0.144531 5.28125 -0.1875 C 5.382812 -0.226562 5.4375 -0.304688 5.4375 -0.421875 C 5.4375 -0.515625 5.390625 -0.664062 5.296875 -0.875 L 4.4375 -2.671875 L 2.046875 -2.671875 L 1.453125 -1.296875 C 1.367188 -1.097656 1.328125 -0.914062 1.328125 -0.75 C 1.328125 -0.332031 1.648438 -0.125 2.296875 -0.125 C 2.328125 -0.125 2.34375 -0.101562 2.34375 -0.0625 C 2.34375 -0.0195312 2.328125 0 2.296875 0 C 2.171875 0 2 -0.00390625 1.78125 -0.015625 C 1.519531 -0.0351562 1.300781 -0.046875 1.125 -0.046875 C 0.957031 -0.046875 0.753906 -0.0351562 0.515625 -0.015625 C 0.304688 -0.00390625 0.132812 0 0 0 C -0.03125 0 -0.046875 -0.0195312 -0.046875 -0.0625 C -0.046875 -0.101562 -0.03125 -0.125 0 -0.125 C 0.1875 -0.125 0.34375 -0.15625 0.46875 -0.21875 C 0.601562 -0.289062 0.726562 -0.414062 0.84375 -0.59375 C 0.96875 -0.78125 1.101562 -1.046875 1.25 -1.390625 L 3.359375 -6.3125 C 3.367188 -6.332031 3.394531 -6.34375 3.4375 -6.34375 C 3.476562 -6.34375 3.5 -6.332031 3.5 -6.3125 L 5.875 -1.375 C 6.101562 -0.882812 6.296875 -0.550781 6.453125 -0.375 C 6.617188 -0.207031 6.804688 -0.125 7.015625 -0.125 Z M 2.140625 -2.875 L 4.328125 -2.875 L 3.171875 -5.296875 Z M 2.140625 -2.875 "/></g></g></g><g fill="#523e27" fill-opacity="1"><g transform="translate(211.503223, 107.835716)"><g><path d="M 4.59375 -4.90625 C 4.59375 -4.882812 4.570312 -4.875 4.53125 -4.875 C 4.5 -4.875 4.484375 -4.882812 4.484375 -4.90625 C 4.441406 -5.257812 4.316406 -5.53125 4.109375 -5.71875 C 3.898438 -5.914062 3.632812 -6.015625 3.3125 -6.015625 L 2.75 -6.015625 C 2.457031 -6.015625 2.253906 -5.972656 2.140625 -5.890625 C 2.035156 -5.804688 1.984375 -5.648438 1.984375 -5.421875 L 1.984375 -3.234375 L 2.953125 -3.234375 C 3.304688 -3.234375 3.5625 -3.289062 3.71875 -3.40625 C 3.882812 -3.519531 3.96875 -3.703125 3.96875 -3.953125 C 3.96875 -3.960938 3.984375 -3.96875 4.015625 -3.96875 C 4.054688 -3.96875 4.078125 -3.960938 4.078125 -3.953125 L 4.078125 -3.125 C 4.078125 -2.925781 4.078125 -2.78125 4.078125 -2.6875 L 4.09375 -2.1875 C 4.09375 -2.175781 4.070312 -2.171875 4.03125 -2.171875 C 3.988281 -2.171875 3.96875 -2.175781 3.96875 -2.1875 C 3.96875 -2.476562 3.882812 -2.6875 3.71875 -2.8125 C 3.550781 -2.945312 3.285156 -3.015625 2.921875 -3.015625 L 1.984375 -3.015625 L 1.984375 -0.84375 C 1.984375 -0.632812 2.007812 -0.476562 2.0625 -0.375 C 2.125 -0.28125 2.234375 -0.210938 2.390625 -0.171875 C 2.554688 -0.140625 2.816406 -0.125 3.171875 -0.125 C 3.179688 -0.125 3.1875 -0.101562 3.1875 -0.0625 C 3.1875 -0.0195312 3.179688 0 3.171875 0 C 2.898438 0 2.6875 -0.00390625 2.53125 -0.015625 L 0.921875 -0.015625 C 0.796875 -0.00390625 0.625 0 0.40625 0 C 0.382812 0 0.375 -0.0195312 0.375 -0.0625 C 0.375 -0.101562 0.382812 -0.125 0.40625 -0.125 C 0.65625 -0.125 0.835938 -0.140625 0.953125 -0.171875 C 1.066406 -0.203125 1.144531 -0.265625 1.1875 -0.359375 C 1.238281 -0.460938 1.265625 -0.613281 1.265625 -0.8125 L 1.265625 -5.4375 C 1.265625 -5.632812 1.242188 -5.78125 1.203125 -5.875 C 1.160156 -5.96875 1.082031 -6.03125 0.96875 -6.0625 C 0.851562 -6.101562 0.671875 -6.125 0.421875 -6.125 C 0.410156 -6.125 0.40625 -6.140625 0.40625 -6.171875 C 0.40625 -6.210938 0.410156 -6.234375 0.421875 -6.234375 L 4.484375 -6.234375 C 4.546875 -6.234375 4.578125 -6.207031 4.578125 -6.15625 Z M 4.59375 -4.90625 "/></g></g></g><g fill="#523e27" fill-opacity="1"><g transform="translate(216.614456, 107.835716)"><g><path d="M 4.78125 -1.5 C 4.78125 -1.519531 4.800781 -1.523438 4.84375 -1.515625 C 4.882812 -1.515625 4.90625 -1.503906 4.90625 -1.484375 C 4.84375 -1.054688 4.8125 -0.613281 4.8125 -0.15625 C 4.8125 -0.09375 4.800781 -0.0507812 4.78125 -0.03125 C 4.757812 -0.0078125 4.71875 0 4.65625 0 L 0.421875 0 C 0.410156 0 0.40625 -0.0195312 0.40625 -0.0625 C 0.40625 -0.101562 0.410156 -0.125 0.421875 -0.125 C 0.671875 -0.125 0.851562 -0.140625 0.96875 -0.171875 C 1.082031 -0.203125 1.160156 -0.265625 1.203125 -0.359375 C 1.242188 -0.460938 1.265625 -0.613281 1.265625 -0.8125 L 1.265625 -5.4375 C 1.265625 -5.632812 1.242188 -5.78125 1.203125 -5.875 C 1.160156 -5.96875 1.082031 -6.03125 0.96875 -6.0625 C 0.851562 -6.101562 0.671875 -6.125 0.421875 -6.125 C 0.410156 -6.125 0.40625 -6.140625 0.40625 -6.171875 C 0.40625 -6.210938 0.410156 -6.234375 0.421875 -6.234375 L 4.484375 -6.234375 C 4.546875 -6.234375 4.578125 -6.207031 4.578125 -6.15625 L 4.59375 -4.90625 C 4.59375 -4.882812 4.570312 -4.875 4.53125 -4.875 C 4.5 -4.875 4.484375 -4.882812 4.484375 -4.90625 C 4.441406 -5.257812 4.316406 -5.53125 4.109375 -5.71875 C 3.898438 -5.914062 3.632812 -6.015625 3.3125 -6.015625 L 2.75 -6.015625 C 2.4375 -6.015625 2.226562 -5.972656 2.125 -5.890625 C 2.03125 -5.804688 1.984375 -5.640625 1.984375 -5.390625 L 1.984375 -3.359375 L 3.140625 -3.359375 C 3.472656 -3.359375 3.710938 -3.410156 3.859375 -3.515625 C 4.003906 -3.628906 4.078125 -3.816406 4.078125 -4.078125 C 4.078125 -4.085938 4.097656 -4.09375 4.140625 -4.09375 C 4.179688 -4.09375 4.203125 -4.085938 4.203125 -4.078125 L 4.1875 -3.25 C 4.1875 -3.050781 4.191406 -2.90625 4.203125 -2.8125 L 4.21875 -2.3125 C 4.21875 -2.289062 4.195312 -2.28125 4.15625 -2.28125 C 4.113281 -2.28125 4.09375 -2.289062 4.09375 -2.3125 C 4.09375 -2.601562 4.015625 -2.8125 3.859375 -2.9375 C 3.710938 -3.070312 3.460938 -3.140625 3.109375 -3.140625 L 1.984375 -3.140625 L 1.984375 -0.84375 C 1.984375 -0.675781 2.003906 -0.546875 2.046875 -0.453125 C 2.085938 -0.367188 2.15625 -0.304688 2.25 -0.265625 C 2.351562 -0.234375 2.507812 -0.21875 2.71875 -0.21875 L 3.421875 -0.21875 C 3.773438 -0.21875 4.066406 -0.328125 4.296875 -0.546875 C 4.535156 -0.773438 4.695312 -1.09375 4.78125 -1.5 Z M 4.78125 -1.5 "/></g></g></g><g fill="#523e27" fill-opacity="1"><g transform="translate(222.005207, 107.835716)"><g><path d="M 4.109375 0.125 C 3.367188 0.125 2.722656 -0.0195312 2.171875 -0.3125 C 1.628906 -0.613281 1.210938 -1.007812 0.921875 -1.5 C 0.628906 -2 0.484375 -2.546875 0.484375 -3.140625 C 0.484375 -3.785156 0.648438 -4.347656 0.984375 -4.828125 C 1.316406 -5.316406 1.765625 -5.691406 2.328125 -5.953125 C 2.898438 -6.210938 3.546875 -6.34375 4.265625 -6.34375 C 4.617188 -6.34375 4.945312 -6.3125 5.25 -6.25 C 5.5625 -6.1875 5.816406 -6.097656 6.015625 -5.984375 C 6.066406 -5.953125 6.097656 -5.925781 6.109375 -5.90625 C 6.117188 -5.894531 6.128906 -5.847656 6.140625 -5.765625 L 6.265625 -4.546875 C 6.265625 -4.523438 6.242188 -4.507812 6.203125 -4.5 C 6.171875 -4.5 6.15625 -4.507812 6.15625 -4.53125 C 6.007812 -5.019531 5.757812 -5.414062 5.40625 -5.71875 C 5.0625 -6.03125 4.601562 -6.1875 4.03125 -6.1875 C 3.53125 -6.1875 3.070312 -6.066406 2.65625 -5.828125 C 2.25 -5.597656 1.925781 -5.257812 1.6875 -4.8125 C 1.457031 -4.375 1.34375 -3.867188 1.34375 -3.296875 C 1.34375 -2.710938 1.457031 -2.171875 1.6875 -1.671875 C 1.914062 -1.179688 2.257812 -0.785156 2.71875 -0.484375 C 3.175781 -0.179688 3.722656 -0.03125 4.359375 -0.03125 C 4.816406 -0.03125 5.132812 -0.117188 5.3125 -0.296875 C 5.5 -0.472656 5.59375 -0.789062 5.59375 -1.25 C 5.59375 -1.59375 5.570312 -1.832031 5.53125 -1.96875 C 5.488281 -2.101562 5.394531 -2.191406 5.25 -2.234375 C 5.113281 -2.285156 4.863281 -2.3125 4.5 -2.3125 C 4.457031 -2.3125 4.4375 -2.335938 4.4375 -2.390625 C 4.4375 -2.410156 4.441406 -2.425781 4.453125 -2.4375 C 4.460938 -2.457031 4.472656 -2.46875 4.484375 -2.46875 C 5.015625 -2.4375 5.441406 -2.421875 5.765625 -2.421875 C 6.078125 -2.421875 6.410156 -2.429688 6.765625 -2.453125 C 6.796875 -2.453125 6.8125 -2.425781 6.8125 -2.375 C 6.8125 -2.332031 6.796875 -2.3125 6.765625 -2.3125 C 6.609375 -2.320312 6.5 -2.300781 6.4375 -2.25 C 6.375 -2.195312 6.332031 -2.09375 6.3125 -1.9375 C 6.289062 -1.789062 6.28125 -1.523438 6.28125 -1.140625 C 6.28125 -0.847656 6.289062 -0.632812 6.3125 -0.5 C 6.332031 -0.375 6.34375 -0.296875 6.34375 -0.265625 C 6.34375 -0.222656 6.335938 -0.195312 6.328125 -0.1875 C 6.316406 -0.175781 6.285156 -0.164062 6.234375 -0.15625 C 5.410156 0.03125 4.703125 0.125 4.109375 0.125 Z M 4.109375 0.125 "/></g></g></g><g fill="#523e27" fill-opacity="1"><g transform="translate(229.16293, 107.835716)"><g><path d="M 3.65625 0.125 C 3.03125 0.125 2.476562 -0.0195312 2 -0.3125 C 1.519531 -0.601562 1.144531 -0.992188 0.875 -1.484375 C 0.613281 -1.984375 0.484375 -2.523438 0.484375 -3.109375 C 0.484375 -3.796875 0.65625 -4.382812 1 -4.875 C 1.351562 -5.363281 1.800781 -5.726562 2.34375 -5.96875 C 2.882812 -6.21875 3.4375 -6.34375 4 -6.34375 C 4.632812 -6.34375 5.191406 -6.195312 5.671875 -5.90625 C 6.148438 -5.613281 6.515625 -5.222656 6.765625 -4.734375 C 7.023438 -4.242188 7.15625 -3.726562 7.15625 -3.1875 C 7.15625 -2.582031 6.992188 -2.023438 6.671875 -1.515625 C 6.359375 -1.015625 5.929688 -0.613281 5.390625 -0.3125 C 4.859375 -0.0195312 4.28125 0.125 3.65625 0.125 Z M 4 -0.09375 C 4.4375 -0.09375 4.832031 -0.203125 5.1875 -0.421875 C 5.539062 -0.648438 5.816406 -0.972656 6.015625 -1.390625 C 6.210938 -1.816406 6.3125 -2.320312 6.3125 -2.90625 C 6.3125 -3.519531 6.203125 -4.070312 5.984375 -4.5625 C 5.765625 -5.050781 5.445312 -5.429688 5.03125 -5.703125 C 4.613281 -5.972656 4.132812 -6.109375 3.59375 -6.109375 C 2.882812 -6.109375 2.328125 -5.875 1.921875 -5.40625 C 1.523438 -4.9375 1.328125 -4.289062 1.328125 -3.46875 C 1.328125 -2.84375 1.4375 -2.269531 1.65625 -1.75 C 1.882812 -1.238281 2.203125 -0.832031 2.609375 -0.53125 C 3.015625 -0.238281 3.476562 -0.09375 4 -0.09375 Z M 4 -0.09375 "/></g></g></g><g fill="#523e27" fill-opacity="1"><g transform="translate(236.807635, 107.835716)"><g/></g></g></svg>