<svg xmlns="http://www.w3.org/2000/svg" xmlns:xlink="http://www.w3.org/1999/xlink" width="300" zoomAndPan="magnify" viewBox="0 0 224.87999 225" height="300" preserveAspectRatio="xMidYMid meet" version="1.0"><defs><clipPath id="1883448ba7"><path d="M 0 0.0585938 L 166.410156 0.0585938 L 166.410156 224.9375 L 0 224.9375 Z M 0 0.0585938 " clip-rule="nonzero"/></clipPath></defs><g clip-path="url(#1883448ba7)"><path fill="#000000" d="M 56.316406 61.535156 C 58.363281 63.34375 60.171875 64.769531 61.777344 66.394531 C 67.113281 71.820312 72.664062 77.0625 77.5625 82.871094 C 82.839844 89.136719 81.414062 98.140625 75.296875 103.914062 C 73.78125 105.359375 73.304688 107.898438 72.246094 110.179688 C 69.796875 111.167969 68.71875 108.828125 67.351562 107.386719 C 54.910156 94.289062 40.222656 84.113281 24.640625 75.289062 C 18.6875 71.910156 12.074219 69.644531 5.679688 67.089844 C 0.65625 65.078125 -0.0546875 64.824219 0.382812 59.34375 C 1.167969 49.570312 4.492188 41.058594 12.894531 34.902344 C 27.492188 24.179688 41.484375 12.617188 57.871094 4.578125 C 60.535156 3.28125 63.367188 2.3125 67.75 0.523438 C 66.308594 8.542969 66.363281 15.136719 59.988281 19.375 C 56.078125 21.96875 52.226562 24.617188 46.890625 28.199219 C 52.5 29.113281 56.371094 29.679688 60.207031 30.371094 C 89.125 35.613281 115.210938 47.25 135.082031 69.078125 C 153.1875 88.9375 165.699219 112.261719 166.046875 140.230469 C 166.320312 163.71875 157.113281 183.886719 142.316406 201.515625 C 136.378906 208.566406 129.128906 214.539062 122.296875 220.804688 C 120.523438 222.429688 118.113281 223.324219 115.976562 224.550781 C 115.519531 224.074219 115.0625 223.597656 114.605469 223.125 C 116.398438 220.238281 118.039062 217.242188 120.050781 214.519531 C 121.308594 212.820312 123.101562 211.507812 124.707031 210.082031 C 145.367188 191.816406 150.882812 168.742188 145.257812 142.605469 C 140.964844 122.636719 130.207031 106.144531 115.464844 92.277344 C 99.917969 77.628906 81.617188 67.691406 61.121094 61.738281 C 60.207031 61.460938 59.277344 61.242188 58.34375 61.097656 C 57.925781 61.058594 57.46875 61.28125 56.316406 61.535156 Z M 56.316406 61.535156 " fill-opacity="1" fill-rule="nonzero"/></g></svg>