<svg xmlns="http://www.w3.org/2000/svg" xmlns:xlink="http://www.w3.org/1999/xlink" width="300" zoomAndPan="magnify" viewBox="0 0 224.87999 225" height="300" preserveAspectRatio="xMidYMid meet" version="1.0"><defs><clipPath id="1698871696"><path d="M 58.46875 0.0585938 L 224.761719 0.0585938 L 224.761719 224.9375 L 58.46875 224.9375 Z M 58.46875 0.0585938 " clip-rule="nonzero"/></clipPath></defs><g clip-path="url(#1698871696)"><path fill="#000000" d="M 168.5625 163.464844 C 166.515625 161.65625 164.707031 160.230469 163.101562 158.605469 C 157.765625 153.179688 152.214844 147.9375 147.320312 142.128906 C 142.039062 135.863281 143.464844 126.859375 149.582031 121.085938 C 151.101562 119.640625 151.574219 117.101562 152.632812 114.820312 C 155.082031 113.832031 156.160156 116.171875 157.53125 117.613281 C 169.96875 130.710938 184.65625 140.886719 200.238281 149.710938 C 206.191406 153.089844 212.804688 155.355469 219.199219 157.910156 C 224.222656 159.921875 224.933594 160.175781 224.496094 165.65625 C 223.710938 175.429688 220.386719 183.941406 211.984375 190.097656 C 197.386719 200.820312 183.394531 212.382812 167.011719 220.421875 C 164.34375 221.71875 161.511719 222.6875 157.128906 224.476562 C 158.570312 216.457031 158.515625 209.863281 164.890625 205.625 C 168.800781 203.03125 172.65625 200.382812 177.988281 196.800781 C 172.382812 195.886719 168.507812 195.320312 164.671875 194.628906 C 135.757812 189.386719 109.671875 177.75 89.796875 155.921875 C 71.695312 136.0625 59.179688 112.738281 58.835938 84.769531 C 58.558594 61.28125 67.765625 41.113281 82.5625 23.484375 C 88.5 16.433594 95.75 10.460938 102.582031 4.195312 C 104.355469 2.570312 106.765625 1.675781 108.902344 0.449219 C 109.359375 0.925781 109.816406 1.402344 110.273438 1.875 C 108.484375 4.761719 106.839844 7.757812 104.832031 10.480469 C 103.570312 12.179688 101.78125 13.492188 100.171875 14.917969 C 79.511719 33.183594 73.996094 56.257812 79.621094 82.394531 C 83.914062 102.363281 94.671875 118.855469 109.414062 132.722656 C 124.960938 147.371094 143.261719 157.308594 163.757812 163.261719 C 164.671875 163.539062 165.605469 163.757812 166.535156 163.902344 C 166.957031 163.941406 167.414062 163.71875 168.5625 163.464844 Z M 168.5625 163.464844 " fill-opacity="1" fill-rule="nonzero"/></g></svg>